<?xml version="1.0" encoding="UTF-8"?>
<svg version="1.1" xmlns="http://www.w3.org/2000/svg" width="1280" height="1280">
<path d="M0 0 C0.92103516 -0.00128906 1.84207031 -0.00257812 2.79101562 -0.00390625 C3.74556641 -0.00003906 4.70011719 0.00382812 5.68359375 0.0078125 C6.64201172 0.00394531 7.60042969 0.00007813 8.58789062 -0.00390625 C9.50763672 -0.00261719 10.42738281 -0.00132813 11.375 0 C12.21361572 0.00112793 13.05223145 0.00225586 13.91625977 0.00341797 C16.12109375 0.1328125 16.12109375 0.1328125 19.12109375 1.1328125 C21.58099816 1.22398975 24.01186321 1.25883286 26.4715271 1.24633789 C27.22601973 1.24648675 27.98051236 1.24663561 28.75786841 1.24678898 C31.29352245 1.24609287 33.8291046 1.2382432 36.36474609 1.23046875 C38.17971252 1.22855017 39.99467947 1.22708609 41.80964661 1.2260437 C45.72200877 1.22287889 49.63434944 1.21660449 53.54670334 1.20797729 C59.73162425 1.19447788 65.91653796 1.18856549 72.10147095 1.18383789 C86.34984617 1.17178101 100.59820274 1.14973681 114.84656525 1.12760925 C127.89823002 1.10743873 140.94988851 1.08936462 154.00156558 1.07939434 C160.1510974 1.07440758 166.30059637 1.06454096 172.45011497 1.05096436 C176.27546554 1.04350934 180.10081158 1.04018996 183.92616844 1.0379982 C185.70111168 1.03612473 187.47605407 1.03252087 189.25098991 1.02706528 C191.67291211 1.01985519 194.09476201 1.01881124 196.51669312 1.01928711 C197.21990798 1.01569215 197.92312285 1.01209719 198.64764726 1.00839329 C202.28152411 1.01604687 205.5776512 1.36348116 209.12109375 2.1328125 C210.60315351 2.21392334 212.08820823 2.25076888 213.57247925 2.24633789 C214.43581029 2.24626456 215.29914133 2.24619123 216.18863392 2.24611568 C217.12524703 2.2409522 218.06186014 2.23578871 219.02685547 2.23046875 C220.02679126 2.22903398 221.02672705 2.2275992 222.05696392 2.22612095 C224.23801412 2.2223529 226.41906125 2.21625824 228.60009956 2.20813179 C232.10725958 2.19510268 235.6143873 2.18808363 239.12156677 2.18260193 C244.13896434 2.17424971 249.156348 2.16348839 254.17373657 2.15084839 C267.20955735 2.11918098 280.24539438 2.10943872 293.28125 2.10546875 C294.57296553 2.10504137 295.86468105 2.10461399 297.19553947 2.10417366 C318.88603 2.10059418 340.57199105 2.21463859 362.26010895 2.53808594 C364.40571151 2.56989909 366.55133147 2.60015507 368.69696045 2.63012695 C411.70467446 3.24209154 411.70467446 3.24209154 428.93359375 5.8203125 C430.11099121 5.99473877 431.28838867 6.16916504 432.50146484 6.34887695 C482.97309919 14.20431823 529.91413323 36.39368505 567.6171875 70.8515625 C569.28186112 72.36820742 570.96163476 73.86844778 572.65625 75.3515625 C617.0438951 114.31938695 641.40230924 174.06934219 648.93359375 231.5078125 C649.04566162 232.36036621 649.15772949 233.21291992 649.27319336 234.09130859 C651.47922678 253.09958059 651.2668135 272.36597398 651.24807739 291.4692688 C651.24923212 294.06280027 651.25082199 296.65633158 651.25280464 299.24986255 C651.25638515 304.84912346 651.2563262 310.4483747 651.25375748 316.04763603 C651.24994786 324.37478374 651.25192274 332.70192341 651.25496578 341.02907107 C651.26021202 355.90998829 651.25978284 370.79090119 651.25688687 385.6718188 C651.25436441 398.6986515 651.25371781 411.72548263 651.25490952 424.75231552 C651.2549859 425.61875188 651.25506229 426.48518824 651.25514099 427.37788025 C651.25545236 430.89570646 651.25577077 434.41353267 651.25610075 437.93135888 C651.25915557 470.89140513 651.25639323 503.85144865 651.25100385 536.81149448 C651.24626125 566.0380681 651.24668124 595.26463736 651.25146484 624.49121094 C651.2568307 657.38459238 651.25893634 690.2779714 651.25585258 723.17135322 C651.2555319 726.68437378 651.25521906 730.19739433 651.25490952 733.71041489 C651.25483044 734.57530569 651.25475136 735.44019649 651.25466989 736.3312961 C651.25353679 749.3397218 651.25485455 762.34814574 651.25738907 775.3565712 C651.26026024 790.16600364 651.25950839 804.97543112 651.25410832 819.78486295 C651.25119214 828.05301896 651.25095093 836.32116421 651.2547545 844.58931992 C651.25729129 850.79299037 651.25450072 856.99664843 651.24977992 863.20031737 C651.24867557 865.68735531 651.24920204 868.17439471 651.25165571 870.66143169 C651.2632886 883.44734434 651.12452731 896.21512319 650.69128227 908.99442863 C650.65463203 910.11399958 650.6179818 911.23357052 650.58022095 912.38706786 C649.57960082 939.06599316 644.89355013 964.92847622 636.12109375 990.1328125 C635.81220215 991.0407959 635.50331055 991.9487793 635.18505859 992.88427734 C628.15252142 1013.38514669 619.07721278 1033.63839189 606.12109375 1051.1328125 C605.47454834 1052.02540771 605.47454834 1052.02540771 604.81494141 1052.93603516 C590.26653239 1073.02052028 573.87979818 1091.9922668 554.12109375 1107.1328125 C553.1671875 1107.90367188 552.21328125 1108.67453125 551.23046875 1109.46875 C502.07597406 1148.6194405 441.64182781 1164.6829222 379.70167542 1164.51376343 C376.90628277 1164.51556653 374.11090405 1164.5218761 371.31551784 1164.52794516 C365.28147438 1164.53868491 359.24751172 1164.53851104 353.21346474 1164.53080368 C344.24000935 1164.51937339 335.2666211 1164.52530005 326.29316604 1164.5344286 C310.25872321 1164.55016504 294.2243164 1164.54888095 278.18987019 1164.54019186 C264.15667107 1164.53262522 250.1234851 1164.53068437 236.09028435 1164.5342598 C235.15700545 1164.53448895 234.22372655 1164.53471811 233.26216647 1164.53495421 C229.4730357 1164.53588832 225.68390493 1164.53684354 221.89477418 1164.5378335 C186.3971805 1164.54699699 150.89960967 1164.53871172 115.40201953 1164.52254281 C83.91277617 1164.50830867 52.42356921 1164.50958046 20.93432617 1164.52392578 C-14.49961199 1164.54001446 -49.93352997 1164.54634577 -85.36747128 1164.53708899 C-89.14974121 1164.53612694 -92.93201114 1164.53518841 -96.71428108 1164.5342598 C-97.64547237 1164.53402256 -98.57666366 1164.53378533 -99.53607287 1164.53354091 C-113.55458126 1164.5301386 -127.57307499 1164.53410043 -141.59158134 1164.54169846 C-157.54328215 1164.55030152 -173.49494152 1164.54807812 -189.44663721 1164.53185622 C-198.35755722 1164.52309155 -207.26838734 1164.52240788 -216.1793049 1164.53379475 C-222.15013935 1164.54057856 -228.12090254 1164.53623432 -234.09172653 1164.52328044 C-237.48115297 1164.51622308 -240.87025911 1164.51523338 -244.25970095 1164.52449839 C-305.06422517 1164.67782973 -364.74420119 1148.43129522 -412.87890625 1110.1328125 C-413.80960937 1109.39417969 -414.7403125 1108.65554688 -415.69921875 1107.89453125 C-430.40203069 1096.03808541 -444.36981325 1083.15754485 -455.87890625 1068.1328125 C-456.64605957 1067.14764648 -456.64605957 1067.14764648 -457.42871094 1066.14257812 C-490.94436918 1022.93774229 -511.10150894 968.87529075 -511.01033401 913.97852707 C-511.01238665 912.81027016 -511.01443928 911.64201325 -511.01655412 910.43835461 C-511.02120921 907.21765052 -511.02145836 903.9969822 -511.01977653 900.77627635 C-511.01904043 897.26377163 -511.02408001 893.75127418 -511.02835155 890.23877263 C-511.03590395 883.28194414 -511.0381232 876.32512334 -511.0386806 869.36829118 C-511.03959699 861.03097704 -511.04627266 852.69366994 -511.05302742 844.35635884 C-511.06906194 824.20841686 -511.0749879 804.06047567 -511.07977617 783.91252846 C-511.08211477 774.37439938 -511.08571773 764.8362709 -511.08947155 755.29814228 C-511.10230508 722.62494403 -511.11302421 689.9517461 -511.11647415 657.27854538 C-511.11669578 655.22879023 -511.11691757 653.17903508 -511.1171395 651.12927993 C-511.11736014 649.07467791 -511.11758062 647.0200759 -511.11780095 644.96547389 C-511.11824349 640.84384457 -511.11869061 636.72221525 -511.11914062 632.60058594 C-511.11925002 631.57866702 -511.11935941 630.5567481 -511.11947211 629.50386194 C-511.12310118 596.38255825 -511.13901657 563.26127648 -511.16233099 530.13998118 C-511.186956 495.09250808 -511.20064824 460.0450475 -511.20184207 424.99756551 C-511.20201351 421.14631859 -511.20222894 417.29507168 -511.2024765 413.44382477 C-511.20253227 412.49559339 -511.20258804 411.54736202 -511.2026455 410.57039636 C-511.20379364 395.34511898 -511.21479543 380.11986417 -511.22936356 364.89459439 C-511.24376723 349.57567858 -511.24694376 334.25679155 -511.23892358 318.93787083 C-511.23448548 309.85127657 -511.23825458 300.76477556 -511.25416209 291.67819365 C-511.2639784 285.59111918 -511.26267107 279.50410936 -511.25272586 273.41703535 C-511.24738126 269.96022018 -511.24646718 266.50358283 -511.25923458 263.04678306 C-511.32144872 242.27848652 -510.33060961 221.64752632 -505.12890625 201.4453125 C-504.87141602 200.41680176 -504.61392578 199.38829102 -504.34863281 198.32861328 C-490.79091568 145.52187471 -461.32376581 94.90297644 -417.87890625 61.1328125 C-416.40550781 59.95138672 -416.40550781 59.95138672 -414.90234375 58.74609375 C-394.20544027 42.28035469 -370.82084395 28.93931531 -345.87890625 20.1328125 C-344.9161377 19.79266113 -343.95336914 19.45250977 -342.96142578 19.10205078 C-317.49426468 10.25118194 -291.04600034 4.71126128 -264.06542969 3.57226562 C-263.10218151 3.53150154 -262.13893333 3.49073746 -261.14649582 3.4487381 C-245.82959483 2.87332682 -230.49511981 2.91980698 -215.16957569 2.86242104 C-210.54823293 2.84392143 -205.92692083 2.81960938 -201.30560303 2.79577637 C-189.58005978 2.73624625 -177.8544874 2.68423401 -166.12890625 2.6328125 C-153.49965837 2.57728424 -140.87042502 2.52013255 -128.24122119 2.45526361 C-123.6758076 2.43201471 -119.11040053 2.41042053 -114.54496002 2.39317322 C-95.10906268 2.31944248 -75.69234719 2.11444285 -56.26571274 1.47968292 C-45.81897454 1.13855039 -35.39242791 1.03247122 -24.94140625 1.1328125 C-22.64985353 1.15322289 -20.35836931 1.17166242 -18.0667572 1.18383789 C-16.07189771 1.19447118 -14.07707926 1.21216663 -12.08227539 1.23046875 C-7.94313073 1.10428493 -4.1705615 0.00560183 0 0 Z " fill="#2D509B" transform="translate(570.87890625,55.8671875)"/>
<path d="M0 0 C0.92103516 -0.00128906 1.84207031 -0.00257812 2.79101562 -0.00390625 C3.74556641 -0.00003906 4.70011719 0.00382812 5.68359375 0.0078125 C6.64201172 0.00394531 7.60042969 0.00007813 8.58789062 -0.00390625 C9.50763672 -0.00261719 10.42738281 -0.00132813 11.375 0 C12.21361572 0.00112793 13.05223145 0.00225586 13.91625977 0.00341797 C16.12109375 0.1328125 16.12109375 0.1328125 19.12109375 1.1328125 C21.58099816 1.22398975 24.01186321 1.25883286 26.4715271 1.24633789 C27.22601973 1.24648675 27.98051236 1.24663561 28.75786841 1.24678898 C31.29352245 1.24609287 33.8291046 1.2382432 36.36474609 1.23046875 C38.17971252 1.22855017 39.99467947 1.22708609 41.80964661 1.2260437 C45.72200877 1.22287889 49.63434944 1.21660449 53.54670334 1.20797729 C59.73162425 1.19447788 65.91653796 1.18856549 72.10147095 1.18383789 C86.34984617 1.17178101 100.59820274 1.14973681 114.84656525 1.12760925 C127.89823002 1.10743873 140.94988851 1.08936462 154.00156558 1.07939434 C160.1510974 1.07440758 166.30059637 1.06454096 172.45011497 1.05096436 C176.27546554 1.04350934 180.10081158 1.04018996 183.92616844 1.0379982 C185.70111168 1.03612473 187.47605407 1.03252087 189.25098991 1.02706528 C191.67291211 1.01985519 194.09476201 1.01881124 196.51669312 1.01928711 C197.21990798 1.01569215 197.92312285 1.01209719 198.64764726 1.00839329 C202.28152411 1.01604687 205.5776512 1.36348116 209.12109375 2.1328125 C210.60315351 2.21392334 212.08820823 2.25076888 213.57247925 2.24633789 C214.43581029 2.24626456 215.29914133 2.24619123 216.18863392 2.24611568 C217.12524703 2.2409522 218.06186014 2.23578871 219.02685547 2.23046875 C220.02679126 2.22903398 221.02672705 2.2275992 222.05696392 2.22612095 C224.23801412 2.2223529 226.41906125 2.21625824 228.60009956 2.20813179 C232.10725958 2.19510268 235.6143873 2.18808363 239.12156677 2.18260193 C244.13896434 2.17424971 249.156348 2.16348839 254.17373657 2.15084839 C267.20955735 2.11918098 280.24539438 2.10943872 293.28125 2.10546875 C294.57296553 2.10504137 295.86468105 2.10461399 297.19553947 2.10417366 C318.88603 2.10059418 340.57199105 2.21463859 362.26010895 2.53808594 C364.40571151 2.56989909 366.55133147 2.60015507 368.69696045 2.63012695 C411.70467446 3.24209154 411.70467446 3.24209154 428.93359375 5.8203125 C430.11099121 5.99473877 431.28838867 6.16916504 432.50146484 6.34887695 C482.97309919 14.20431823 529.91413323 36.39368505 567.6171875 70.8515625 C569.28186112 72.36820742 570.96163476 73.86844778 572.65625 75.3515625 C617.0438951 114.31938695 641.40230924 174.06934219 648.93359375 231.5078125 C649.04566162 232.36036621 649.15772949 233.21291992 649.27319336 234.09130859 C651.47922678 253.09958059 651.2668135 272.36597398 651.24807739 291.4692688 C651.24923212 294.06280027 651.25082199 296.65633158 651.25280464 299.24986255 C651.25638515 304.84912346 651.2563262 310.4483747 651.25375748 316.04763603 C651.24994786 324.37478374 651.25192274 332.70192341 651.25496578 341.02907107 C651.26021202 355.90998829 651.25978284 370.79090119 651.25688687 385.6718188 C651.25436441 398.6986515 651.25371781 411.72548263 651.25490952 424.75231552 C651.2549859 425.61875188 651.25506229 426.48518824 651.25514099 427.37788025 C651.25545236 430.89570646 651.25577077 434.41353267 651.25610075 437.93135888 C651.25915557 470.89140513 651.25639323 503.85144865 651.25100385 536.81149448 C651.24626125 566.0380681 651.24668124 595.26463736 651.25146484 624.49121094 C651.2568307 657.38459238 651.25893634 690.2779714 651.25585258 723.17135322 C651.2555319 726.68437378 651.25521906 730.19739433 651.25490952 733.71041489 C651.25483044 734.57530569 651.25475136 735.44019649 651.25466989 736.3312961 C651.25353679 749.3397218 651.25485455 762.34814574 651.25738907 775.3565712 C651.26026024 790.16600364 651.25950839 804.97543112 651.25410832 819.78486295 C651.25119214 828.05301896 651.25095093 836.32116421 651.2547545 844.58931992 C651.25729129 850.79299037 651.25450072 856.99664843 651.24977992 863.20031737 C651.24867557 865.68735531 651.24920204 868.17439471 651.25165571 870.66143169 C651.2632886 883.44734434 651.12452731 896.21512319 650.69128227 908.99442863 C650.65463203 910.11399958 650.6179818 911.23357052 650.58022095 912.38706786 C649.57960082 939.06599316 644.89355013 964.92847622 636.12109375 990.1328125 C635.81220215 991.0407959 635.50331055 991.9487793 635.18505859 992.88427734 C628.15252142 1013.38514669 619.07721278 1033.63839189 606.12109375 1051.1328125 C605.47454834 1052.02540771 605.47454834 1052.02540771 604.81494141 1052.93603516 C590.26653239 1073.02052028 573.87979818 1091.9922668 554.12109375 1107.1328125 C553.1671875 1107.90367188 552.21328125 1108.67453125 551.23046875 1109.46875 C502.07597406 1148.6194405 441.64182781 1164.6829222 379.70167542 1164.51376343 C376.90628277 1164.51556653 374.11090405 1164.5218761 371.31551784 1164.52794516 C365.28147438 1164.53868491 359.24751172 1164.53851104 353.21346474 1164.53080368 C344.24000935 1164.51937339 335.2666211 1164.52530005 326.29316604 1164.5344286 C310.25872321 1164.55016504 294.2243164 1164.54888095 278.18987019 1164.54019186 C264.15667107 1164.53262522 250.1234851 1164.53068437 236.09028435 1164.5342598 C235.15700545 1164.53448895 234.22372655 1164.53471811 233.26216647 1164.53495421 C229.4730357 1164.53588832 225.68390493 1164.53684354 221.89477418 1164.5378335 C186.3971805 1164.54699699 150.89960967 1164.53871172 115.40201953 1164.52254281 C83.91277617 1164.50830867 52.42356921 1164.50958046 20.93432617 1164.52392578 C-14.49961199 1164.54001446 -49.93352997 1164.54634577 -85.36747128 1164.53708899 C-89.14974121 1164.53612694 -92.93201114 1164.53518841 -96.71428108 1164.5342598 C-97.64547237 1164.53402256 -98.57666366 1164.53378533 -99.53607287 1164.53354091 C-113.55458126 1164.5301386 -127.57307499 1164.53410043 -141.59158134 1164.54169846 C-157.54328215 1164.55030152 -173.49494152 1164.54807812 -189.44663721 1164.53185622 C-198.35755722 1164.52309155 -207.26838734 1164.52240788 -216.1793049 1164.53379475 C-222.15013935 1164.54057856 -228.12090254 1164.53623432 -234.09172653 1164.52328044 C-237.48115297 1164.51622308 -240.87025911 1164.51523338 -244.25970095 1164.52449839 C-305.06422517 1164.67782973 -364.74420119 1148.43129522 -412.87890625 1110.1328125 C-413.80960937 1109.39417969 -414.7403125 1108.65554688 -415.69921875 1107.89453125 C-430.40203069 1096.03808541 -444.36981325 1083.15754485 -455.87890625 1068.1328125 C-456.64605957 1067.14764648 -456.64605957 1067.14764648 -457.42871094 1066.14257812 C-490.94436918 1022.93774229 -511.10150894 968.87529075 -511.01033401 913.97852707 C-511.01238665 912.81027016 -511.01443928 911.64201325 -511.01655412 910.43835461 C-511.02120921 907.21765052 -511.02145836 903.9969822 -511.01977653 900.77627635 C-511.01904043 897.26377163 -511.02408001 893.75127418 -511.02835155 890.23877263 C-511.03590395 883.28194414 -511.0381232 876.32512334 -511.0386806 869.36829118 C-511.03959699 861.03097704 -511.04627266 852.69366994 -511.05302742 844.35635884 C-511.06906194 824.20841686 -511.0749879 804.06047567 -511.07977617 783.91252846 C-511.08211477 774.37439938 -511.08571773 764.8362709 -511.08947155 755.29814228 C-511.10230508 722.62494403 -511.11302421 689.9517461 -511.11647415 657.27854538 C-511.11669578 655.22879023 -511.11691757 653.17903508 -511.1171395 651.12927993 C-511.11736014 649.07467791 -511.11758062 647.0200759 -511.11780095 644.96547389 C-511.11824349 640.84384457 -511.11869061 636.72221525 -511.11914062 632.60058594 C-511.11925002 631.57866702 -511.11935941 630.5567481 -511.11947211 629.50386194 C-511.12310118 596.38255825 -511.13901657 563.26127648 -511.16233099 530.13998118 C-511.186956 495.09250808 -511.20064824 460.0450475 -511.20184207 424.99756551 C-511.20201351 421.14631859 -511.20222894 417.29507168 -511.2024765 413.44382477 C-511.20253227 412.49559339 -511.20258804 411.54736202 -511.2026455 410.57039636 C-511.20379364 395.34511898 -511.21479543 380.11986417 -511.22936356 364.89459439 C-511.24376723 349.57567858 -511.24694376 334.25679155 -511.23892358 318.93787083 C-511.23448548 309.85127657 -511.23825458 300.76477556 -511.25416209 291.67819365 C-511.2639784 285.59111918 -511.26267107 279.50410936 -511.25272586 273.41703535 C-511.24738126 269.96022018 -511.24646718 266.50358283 -511.25923458 263.04678306 C-511.32144872 242.27848652 -510.33060961 221.64752632 -505.12890625 201.4453125 C-504.87141602 200.41680176 -504.61392578 199.38829102 -504.34863281 198.32861328 C-490.79091568 145.52187471 -461.32376581 94.90297644 -417.87890625 61.1328125 C-416.40550781 59.95138672 -416.40550781 59.95138672 -414.90234375 58.74609375 C-394.20544027 42.28035469 -370.82084395 28.93931531 -345.87890625 20.1328125 C-344.9161377 19.79266113 -343.95336914 19.45250977 -342.96142578 19.10205078 C-317.49426468 10.25118194 -291.04600034 4.71126128 -264.06542969 3.57226562 C-263.10218151 3.53150154 -262.13893333 3.49073746 -261.14649582 3.4487381 C-245.82959483 2.87332682 -230.49511981 2.91980698 -215.16957569 2.86242104 C-210.54823293 2.84392143 -205.92692083 2.81960938 -201.30560303 2.79577637 C-189.58005978 2.73624625 -177.8544874 2.68423401 -166.12890625 2.6328125 C-153.49965837 2.57728424 -140.87042502 2.52013255 -128.24122119 2.45526361 C-123.6758076 2.43201471 -119.11040053 2.41042053 -114.54496002 2.39317322 C-95.10906268 2.31944248 -75.69234719 2.11444285 -56.26571274 1.47968292 C-45.81897454 1.13855039 -35.39242791 1.03247122 -24.94140625 1.1328125 C-22.64985353 1.15322289 -20.35836931 1.17166242 -18.0667572 1.18383789 C-16.07189771 1.19447118 -14.07707926 1.21216663 -12.08227539 1.23046875 C-7.94313073 1.10428493 -4.1705615 0.00560183 0 0 Z M-322.87890625 42.1328125 C-323.66700684 42.37725098 -324.45510742 42.62168945 -325.26708984 42.87353516 C-352.01221219 51.31574179 -375.98373604 64.70759054 -397.87890625 82.1328125 C-398.44947754 82.58624023 -399.02004883 83.03966797 -399.60791016 83.50683594 C-412.31403644 93.70600738 -423.99697749 105.1605986 -433.87890625 118.1328125 C-434.31299805 118.70112793 -434.74708984 119.26944336 -435.19433594 119.85498047 C-451.41276382 141.19770519 -464.38915907 164.66357096 -472.87890625 190.1328125 C-473.15959961 190.97489258 -473.44029297 191.81697266 -473.72949219 192.68457031 C-478.35276175 206.90289402 -480.89128206 221.33577491 -482.87890625 236.1328125 C-483.04920406 237.27595889 -483.21950187 238.41910528 -483.39496022 239.59689248 C-484.05318192 244.92048308 -484.01799197 250.22005071 -484.0075407 255.57740593 C-484.00929374 256.71751944 -484.01104678 257.85763294 -484.01285294 259.03229535 C-484.01751454 262.86267801 -484.01504699 266.69302273 -484.01261902 270.52340698 C-484.01393512 273.29347462 -484.01674765 276.06354029 -484.01948434 278.83360684 C-484.02463444 284.86169325 -484.02605622 290.88977164 -484.02502823 296.91786003 C-484.02350323 305.88235558 -484.02766529 314.84684225 -484.03290285 323.81133608 C-484.04257596 340.75560923 -484.04538711 357.69987936 -484.04595991 374.64415495 C-484.04641948 387.73257971 -484.04847793 400.82100327 -484.05166054 413.90942764 C-484.05255809 417.67716284 -484.05344791 421.44489805 -484.05433542 425.21263325 C-484.05455646 426.14932091 -484.05477751 427.08600856 -484.05500526 428.05108069 C-484.06116012 454.40143891 -484.06510577 480.75179672 -484.06466198 507.10215569 C-484.0646464 508.09573858 -484.06463082 509.08932147 -484.06461477 510.11301294 C-484.06453166 515.14886067 -484.06443262 520.1847084 -484.06433006 525.22055613 C-484.06431012 526.22068425 -484.06429017 527.22081237 -484.06426962 528.25124741 C-484.06422919 530.27375249 -484.06418739 532.29625757 -484.06414423 534.31876265 C-484.06353175 565.77175785 -484.07103283 597.22474226 -484.0847168 628.67773438 C-484.10008664 664.02029191 -484.10868244 699.36284236 -484.10775357 734.70540345 C-484.10767895 738.4762822 -484.10763024 742.24716095 -484.10759926 746.0180397 C-484.1075876 746.94651436 -484.10757595 747.87498902 -484.10756394 748.83159927 C-484.1075332 763.75700951 -484.1139124 778.68241038 -484.12253152 793.60781784 C-484.13102006 808.61793702 -484.1319886 823.62804252 -484.1254222 838.63816278 C-484.12173425 847.54823554 -484.12353628 856.45826665 -484.13336454 865.36833497 C-484.1393834 871.33023064 -484.13804798 877.29209629 -484.13089404 883.25399061 C-484.12702847 886.64429018 -484.12731152 890.03444429 -484.1343514 893.42474829 C-484.16159764 907.48208636 -483.832995 921.20353494 -481.87890625 935.1328125 C-481.67285284 936.88362187 -481.46976913 938.63479256 -481.2734375 940.38671875 C-478.70048077 960.29351463 -472.91644307 979.75848274 -464.87890625 998.1328125 C-464.51958008 998.95700684 -464.16025391 999.78120117 -463.79003906 1000.63037109 C-440.2061589 1053.95869623 -396.98211148 1097.49106426 -342.69238281 1119.41992188 C-335.4880661 1122.19163931 -328.20856145 1124.71469873 -320.87890625 1127.1328125 C-320.18893555 1127.36581055 -319.49896484 1127.59880859 -318.78808594 1127.83886719 C-300.76286814 1133.86037046 -281.02322163 1136.29587941 -262.08003807 1136.26424026 C-260.92590746 1136.2662929 -259.77177686 1136.26834553 -258.5826726 1136.27046037 C-255.39226265 1136.27512536 -252.20188868 1136.27536187 -249.01147693 1136.27368278 C-245.53528829 1136.27294813 -242.05910706 1136.27798292 -238.58292162 1136.2822578 C-231.69401673 1136.28981862 -224.8051196 1136.29202988 -217.91621099 1136.29258685 C-209.66180451 1136.29350241 -201.40740516 1136.30017572 -193.15300175 1136.30693367 C-173.20275843 1136.32297759 -153.25251588 1136.32889546 -133.30226726 1136.33368242 C-123.85828902 1136.33602033 -114.4143114 1136.33962323 -104.97033363 1136.3433778 C-72.62254377 1136.35621288 -40.27475425 1136.36693131 -7.9269619 1136.3703804 C-5.89710881 1136.37060203 -3.86725571 1136.37082382 -1.83740262 1136.37104575 C0.19727168 1136.37126639 2.23194598 1136.37148687 4.26662028 1136.3717072 C8.34831977 1136.37214975 12.43001926 1136.37259686 16.51171875 1136.37304688 C17.52373954 1136.37315627 18.53576034 1136.37326566 19.57844843 1136.37337836 C52.37360565 1136.37700684 85.16874073 1136.39291921 117.96388948 1136.41623724 C152.66200446 1136.44086305 187.36010679 1136.45455455 222.05823076 1136.45574832 C225.87131334 1136.45591976 229.68439591 1136.45613519 233.49747849 1136.45638275 C234.43632081 1136.45643852 235.37516313 1136.45649429 236.34245522 1136.45655175 C251.41720966 1136.4576999 266.49194129 1136.46870195 281.56668804 1136.48326981 C296.73574022 1136.49767465 311.90476334 1136.50084939 327.07382049 1136.49282983 C336.07153346 1136.48839207 345.06915225 1136.49215942 354.06685274 1136.50806834 C360.09475232 1136.517886 366.1225866 1136.51657606 372.15048572 1136.50663211 C375.5735793 1136.50128834 378.9963487 1136.50207497 382.4194494 1136.51314083 C398.8954211 1136.56299256 414.82907029 1135.62303464 431.12109375 1133.1328125 C431.87341985 1133.0221789 432.62574594 1132.9115453 433.4008698 1132.79755917 C476.75257487 1126.40623986 517.79263054 1104.34795016 549.12109375 1074.1328125 C550.16088379 1073.13386963 550.16088379 1073.13386963 551.22167969 1072.11474609 C560.99894959 1062.67237191 570.12787902 1053.13735986 578.12109375 1042.1328125 C578.76046875 1041.26527344 579.39984375 1040.39773438 580.05859375 1039.50390625 C590.86907745 1024.47057735 599.90977483 1008.3319831 606.40332031 990.99804688 C607.09969907 989.18840957 607.85569856 987.40206818 608.61328125 985.6171875 C612.069701 977.19999952 614.34430151 968.70331955 616.30859375 959.8203125 C616.6653418 958.25083862 616.6653418 958.25083862 617.02929688 956.6496582 C621.6746516 934.54681317 622.56331659 912.18132437 622.48858643 889.67170715 C622.4889449 886.9085605 622.49383846 884.1454257 622.498492 881.38228339 C622.50616585 875.42822326 622.50295992 869.47425108 622.49216843 863.52019691 C622.47616604 854.666219 622.47767593 845.81230108 622.48246071 836.95831304 C622.49001269 822.05268225 622.48359687 807.14708875 622.46884918 792.24146461 C622.45427229 777.49055502 622.44555973 762.73966177 622.444664 747.98874474 C622.44460291 747.0682294 622.44454181 746.14771406 622.44447887 745.19930432 C622.44424932 741.46205584 622.44406216 737.72480736 622.44393073 733.98755887 C622.44272181 699.99226479 622.42706758 665.99699347 622.40234375 632.00170898 C622.3790345 599.94441552 622.36487389 567.88713586 622.36132812 535.82983398 C622.36121661 534.84137891 622.36110509 533.85292384 622.3609902 532.83451558 C622.36054132 528.84925494 622.36009934 524.86399429 622.35965777 520.87873364 C622.35943739 518.89249606 622.3592161 516.90625848 622.35899389 514.92002089 C622.35877253 512.93851013 622.35855376 510.95699937 622.35833759 508.97548861 C622.35482022 477.39999449 622.34336159 445.82450295 622.33053125 414.24901143 C622.32681704 405.01689701 622.32355098 395.78478276 622.32128239 386.55266786 C622.31646927 367.15068308 622.30935668 347.74870654 622.29313472 328.34672747 C622.28650057 320.32652611 622.28133943 312.30633138 622.28067398 304.28612709 C622.2801198 297.63298842 622.27623418 290.97986257 622.26789806 284.3267289 C622.26380068 280.98163752 622.26174771 277.63658059 622.26301327 274.29148457 C622.27655808 229.91060191 615.0518773 190.60169559 594.12109375 151.1328125 C593.5075 149.97523438 592.89390625 148.81765625 592.26171875 147.625 C577.5481864 120.93392272 556.4353192 96.32687028 531.7890625 78.35205078 C530.10325588 77.11977352 528.4401467 75.86074695 526.77734375 74.59765625 C500.43725717 54.87581544 468.87132685 42.29764089 436.74609375 35.9453125 C435.98208252 35.79046387 435.21807129 35.63561523 434.4309082 35.47607422 C415.79388834 31.98531273 397.04290447 31.83952033 378.1471405 31.85865784 C375.35122898 31.85529296 372.55532581 31.84895871 369.75941926 31.84278911 C363.71170158 31.83102574 357.66401393 31.82657303 351.61628532 31.82711029 C342.62208932 31.82790838 333.62793087 31.81730403 324.63374497 31.80469472 C306.6940723 31.78004148 288.75440899 31.77118149 270.81472171 31.76615823 C269.88726268 31.76589706 268.95980365 31.76563588 268.0042398 31.76536679 C267.07478971 31.76510652 266.14533962 31.76484624 265.18772437 31.76457808 C254.85816829 31.76148785 244.52861476 31.75498034 234.19906044 31.7483654 C202.96364944 31.72872692 171.72824117 31.71231708 140.4928236 31.70948887 C139.49516358 31.70939481 138.49750355 31.70930075 137.4696114 31.70920384 C133.42704588 31.70882538 129.38448036 31.70846139 125.34191483 31.70810086 C122.29963919 31.70782914 119.25736354 31.70755246 116.21508789 31.70727539 C114.70715749 31.70714336 114.70715749 31.70714336 113.16876385 31.70700866 C81.59954222 31.7041048 50.03038187 31.68201746 18.46118164 31.64575195 C-17.05994895 31.60494702 -52.58103777 31.58132973 -88.10219306 31.58102936 C-91.89642855 31.58093254 -95.69066403 31.58076584 -99.48489952 31.58054924 C-100.41903858 31.58050513 -101.35317763 31.58046101 -102.31562393 31.58041556 C-117.28990109 31.5792999 -132.26411638 31.56195267 -147.23837367 31.53872992 C-162.31224493 31.51578784 -177.38603339 31.51172604 -192.45991573 31.52627922 C-201.39183896 31.53437651 -210.32349975 31.52893418 -219.25539066 31.50309837 C-225.24801552 31.48717722 -231.24045707 31.48999223 -237.23307809 31.5070051 C-240.63027114 31.51615019 -244.0265641 31.51529562 -247.42377708 31.49703903 C-273.0233018 31.36849395 -298.37474092 34.43181134 -322.87890625 42.1328125 Z " fill="#FDFDFE" transform="translate(570.87890625,55.8671875)"/>
<path d="M0 0 C0.78820129 -0.00983917 1.57640259 -0.01967834 2.38848877 -0.02981567 C39.98657746 -0.4018412 77.49169304 4.61762777 107.6640625 29.23828125 C109.04271484 30.31722656 109.04271484 30.31722656 110.44921875 31.41796875 C131.72207771 48.33091576 145.22695336 69.2415737 152.6640625 95.23828125 C153.17646484 97.01332031 153.17646484 97.01332031 153.69921875 98.82421875 C155.40593458 105.63520564 155.9547948 112.24606873 156.0390625 119.23828125 C156.05308105 120.03999756 156.06709961 120.84171387 156.08154297 121.66772461 C156.04113062 126.59233221 155.33790116 129.95488369 152.6640625 134.23828125 C148.64144932 138.12218363 143.76121594 139.3401445 138.2890625 139.61328125 C133.33677968 139.46295901 129.609073 138.24810849 125.6640625 135.23828125 C121.63581735 128.72244441 120.63825516 122.41389287 119.4765625 114.92578125 C116.57752642 98.29175646 110.44119157 84.32314674 99.6640625 71.23828125 C99.17550781 70.60019531 98.68695312 69.96210938 98.18359375 69.3046875 C83.2722844 50.55068779 56.68002503 40.58512144 33.6640625 37.23828125 C33.03298584 37.14619385 32.40190918 37.05410645 31.75170898 36.95922852 C7.7872477 33.8574207 -19.2160172 34.86442285 -41.3359375 45.23828125 C-41.97756836 45.53250977 -42.61919922 45.82673828 -43.28027344 46.12988281 C-51.69672256 50.01591827 -59.33328719 54.07866845 -66.3359375 60.23828125 C-67.09261719 60.85316406 -67.84929687 61.46804688 -68.62890625 62.1015625 C-83.00768491 74.12000563 -91.63748461 92.87470407 -94.3359375 111.23828125 C-96.06260349 135.62532931 -93.66003696 157.8867316 -77.29296875 177.0703125 C-76.32423828 178.14345703 -76.32423828 178.14345703 -75.3359375 179.23828125 C-74.78292969 179.86089844 -74.22992187 180.48351562 -73.66015625 181.125 C-55.04990609 200.89006282 -26.44879388 210.52616679 -1.5824585 219.43322754 C0.89402956 220.32069127 3.36965335 221.21054094 5.84521484 222.10058594 C15.07482507 225.41754491 24.30807251 228.72435209 33.546875 232.015625 C34.33345993 232.2965097 35.12004486 232.57739441 35.9304657 232.86679077 C39.69644959 234.20622867 43.46941448 235.51346656 47.26464844 236.76782227 C95.56942617 252.77260665 147.70561632 275.36108905 171.9140625 323.17578125 C177.59498885 334.78005339 181.30902127 346.53739413 183.6640625 359.23828125 C183.82702914 359.89891917 183.98999578 360.55955709 184.15790081 361.24021435 C186.41193036 371.31456757 185.95221427 381.60044437 185.9387207 391.86254883 C185.94307279 394.0514544 185.94825759 396.24035845 185.95420837 398.42926025 C185.96755036 404.34826174 185.96818282 410.26719919 185.96564507 416.18621278 C185.96457296 421.13200761 185.96946444 426.07778961 185.9742505 431.02358168 C185.98532721 442.68719906 185.98579221 454.35078421 185.97973633 466.0144043 C185.97435535 476.71431139 185.98126369 487.4141224 186.00024414 498.11401367 C186.02087307 509.78494644 186.03134583 521.45582313 186.02766865 533.12677497 C186.02585488 539.29835829 186.02850222 545.46985825 186.04238319 551.64142799 C186.0549365 557.43879397 186.05304107 563.23597735 186.03997231 569.03334045 C186.03760223 571.16101836 186.04035656 573.28870903 186.04859543 575.4163723 C186.05902711 578.31940535 186.0509911 581.22182147 186.0382843 584.12483215 C186.04565859 584.96753326 186.05303287 585.81023436 186.06063062 586.67847186 C186.00751359 592.44203777 184.97238036 596.68359999 180.98046875 601.1015625 C180.11228516 601.81892578 180.11228516 601.81892578 179.2265625 602.55078125 C178.65035156 603.04191406 178.07414062 603.53304687 177.48046875 604.0390625 C172.64172951 607.23367099 166.21703514 606.99135562 160.6640625 606.23828125 C154.01784115 603.49817245 148.54392841 597.65903849 143.16870117 592.97558594 C139.09644354 589.42900888 134.93584367 586.04097595 130.6640625 582.73828125 C125.17388924 578.48603537 119.8790908 574.049163 114.62841797 569.50561523 C110.62980661 566.0502263 106.56373921 562.70414998 102.41796875 559.42578125 C98.83225803 556.57755713 95.27922764 553.69005656 91.7265625 550.80078125 C91.03062988 550.23496338 90.33469727 549.66914551 89.61767578 549.08618164 C84.92127463 545.26572728 80.23420724 541.43400519 75.55078125 537.59765625 C69.96835672 533.0350251 64.3682472 528.49412631 58.77099609 523.94970703 C56.65769984 522.23311297 54.54548481 520.51519746 52.43359375 518.796875 C51.05212844 517.67312164 49.67061868 516.5494229 48.2890625 515.42578125 C47.28625244 514.61016724 47.28625244 514.61016724 46.26318359 513.77807617 C41.85508065 510.19642398 37.42772379 506.64036935 32.97265625 503.1171875 C30.6640625 501.23828125 30.6640625 501.23828125 29.21923828 499.72265625 C24.11146089 494.64065274 19.67228754 494.32501694 12.6640625 494.11328125 C10.50342987 493.98569068 8.34325824 493.85007668 6.18359375 493.70703125 C5.09256348 493.63613281 4.0015332 493.56523438 2.87744141 493.4921875 C-21.01795959 491.60408409 -45.44003251 485.01295787 -66.3359375 473.23828125 C-67.52338524 472.61728958 -68.71349675 472.00136428 -69.90625 471.390625 C-81.25406881 465.50992163 -90.10794256 457.96088904 -99.3359375 449.23828125 C-100.16867187 448.4596875 -101.00140625 447.68109375 -101.859375 446.87890625 C-123.29478818 426.24823554 -135.70960563 394.51480515 -136.7109375 365.17578125 C-136.59771057 360.03653683 -136.09975542 357.00209917 -132.3359375 353.23828125 C-127.30243945 348.80880296 -122.71219902 347.40898453 -116.01953125 347.76171875 C-111.71360887 348.52638037 -108.33864905 350.02825554 -105.3359375 353.23828125 C-101.70487237 358.84355014 -100.64981073 364.1923865 -99.9609375 370.73828125 C-97.19136966 392.07873775 -87.54380218 409.24119778 -72.3359375 424.23828125 C-71.22605469 425.36363281 -71.22605469 425.36363281 -70.09375 426.51171875 C-57.73952676 438.30650546 -41.37303331 445.15875851 -25.3359375 450.23828125 C-24.33175781 450.57472656 -23.32757812 450.91117188 -22.29296875 451.2578125 C-9.3453486 455.55088074 3.15430715 457.42989539 16.80078125 457.10693359 C35.58239782 456.82945596 35.58239782 456.82945596 42.39624023 462.39501953 C44.74289855 464.67588975 46.94589025 467.04469009 49.08691406 469.51904297 C51.61880793 472.27904245 54.54782667 474.43989953 57.5390625 476.67578125 C62.83483294 480.7604451 68.01514999 484.97032406 73.1640625 489.23828125 C79.54232341 494.52033469 85.99513594 499.69021999 92.5234375 504.78515625 C100.66940535 511.14792716 108.67404645 517.68150254 116.6640625 524.23828125 C123.1111886 529.52297098 129.56991479 534.79308166 136.0390625 540.05078125 C137.05649536 540.87787598 137.05649536 540.87787598 138.09448242 541.72167969 C138.74392822 542.24922852 139.39337402 542.77677734 140.0625 543.3203125 C140.92367432 544.01991089 140.92367432 544.01991089 141.80224609 544.73364258 C144.08292913 546.57679096 146.37383555 548.40701159 148.6640625 550.23828125 C148.75780942 527.09737938 148.82818973 503.95650916 148.87131119 480.81545544 C148.89187196 470.06888134 148.91986749 459.32242574 148.96582031 448.57592773 C149.00588777 439.20124914 149.03154234 429.82665643 149.04041648 420.45189458 C149.04559775 415.49529426 149.05763786 410.53893949 149.08698273 405.58241844 C149.1144677 400.90138471 149.12244193 396.22069379 149.11649323 391.53958702 C149.11757888 389.83662543 149.12533329 388.13365036 149.1408844 386.43075943 C149.33760396 363.74479896 144.36227475 339.67081651 128.84375 322.1875 C127.15924141 320.4847608 125.42988768 318.85589568 123.6640625 317.23828125 C122.7771875 316.33078125 121.8903125 315.42328125 120.9765625 314.48828125 C118.7564817 312.22254104 118.7564817 312.22254104 116.3515625 310.55078125 C115.7946875 310.11765625 115.2378125 309.68453125 114.6640625 309.23828125 C114.6640625 308.57828125 114.6640625 307.91828125 114.6640625 307.23828125 C113.9421875 306.99078125 113.2203125 306.74328125 112.4765625 306.48828125 C109.38893288 305.11600142 107.28565961 303.36052653 104.6640625 301.23828125 C100.41557132 298.6731545 96.07626264 296.41901402 91.62109375 294.23828125 C89.82123263 293.31859174 88.08185677 292.28298723 86.3515625 291.23828125 C82.4852829 288.97030199 78.35104171 287.59896417 74.1171875 286.16796875 C71.6640625 285.23828125 71.6640625 285.23828125 68.6640625 283.23828125 C66.67080602 282.55171513 64.66988366 281.88722339 62.6640625 281.23828125 C59.64813238 280.01305964 56.65771031 278.73556833 53.6640625 277.45703125 C50.69307964 276.25006946 47.70721279 275.24906758 44.6640625 274.23828125 C41.02970474 272.90902744 37.4100615 271.54093749 33.7890625 270.17578125 C32.73332031 269.7794751 31.67757812 269.38316895 30.58984375 268.97485352 C25.25307128 266.97079416 19.92027537 264.95692119 14.59375 262.92578125 C4.66003903 259.15092208 -5.28421437 255.56361913 -15.3984375 252.30078125 C-42.42892942 243.50616088 -70.79616717 231.17216819 -92.3359375 212.23828125 C-93.18800781 211.51898437 -94.04007813 210.7996875 -94.91796875 210.05859375 C-110.36877326 196.72011121 -119.98629674 180.3896171 -126.3359375 161.23828125 C-126.65304687 160.31144531 -126.97015625 159.38460937 -127.296875 158.4296875 C-134.62500905 135.75600541 -132.81707532 110.83716707 -126.3359375 88.23828125 C-126.14370605 87.5510498 -125.95147461 86.86381836 -125.75341797 86.15576172 C-121.47112554 71.34186182 -112.99920117 58.10483843 -103.3359375 46.23828125 C-102.69011719 45.4390625 -102.04429687 44.63984375 -101.37890625 43.81640625 C-77.63307996 15.76634668 -36.17559589 0.37192081 0 0 Z " fill="#F8FAFB" transform="translate(811.3359375,366.76171875)"/>
<path d="M0 0 C0.55929199 0.39703125 1.11858398 0.7940625 1.69482422 1.203125 C9.81796195 7.03342251 16.97648933 13.70521851 24.0625 20.75 C24.87235352 21.55429443 25.68220703 22.35858887 26.51660156 23.18725586 C37.47949895 34.28449122 37.47949895 34.28449122 38.59375 40.09765625 C38.22714634 51.69149703 38.22714634 51.69149703 33.60546875 56.4296875 C28.54742318 60.96272075 24.08860432 61.36970094 17.5234375 61.2734375 C8.8023854 60.32843186 3.01080628 52.38331324 -2.3125 46.125 C-19.16169067 26.74097533 -42.21453544 14.63461662 -66 6 C-66.70656738 5.74202637 -67.41313477 5.48405273 -68.14111328 5.21826172 C-112.83703378 -10.76850162 -163.24137899 -3.71889589 -205.5625 15.75 C-219.74274851 22.49483139 -232.92087645 30.98387703 -245 41 C-245.59329102 41.49177734 -246.18658203 41.98355469 -246.79785156 42.49023438 C-266.61578479 59.02073441 -283.48446995 78.34218889 -296 101 C-296.39638672 101.69609375 -296.79277344 102.3921875 -297.20117188 103.109375 C-304.64186945 116.20314546 -310.09243645 129.77873431 -315 144 C-315.23976563 144.69416016 -315.47953125 145.38832031 -315.7265625 146.10351562 C-322.27066145 165.38375652 -324.42566912 185.14061769 -324.375 205.375 C-324.37445618 206.19949646 -324.37391235 207.02399292 -324.37335205 207.87347412 C-324.30755371 229.71273422 -321.26014972 250.35879817 -314 271 C-313.69545898 271.86995605 -313.39091797 272.73991211 -313.07714844 273.63623047 C-308.86178349 285.5082934 -304.07462437 296.9567995 -298 308 C-297.65888184 308.62036133 -297.31776367 309.24072266 -296.96630859 309.87988281 C-271.72427248 355.09686971 -228.25196756 391.10757552 -178.19580078 405.40771484 C-171.52073305 407.20821677 -164.78835749 408.69817251 -158 410 C-157.19296631 410.17732666 -156.38593262 410.35465332 -155.55444336 410.53735352 C-145.23296538 412.59060518 -134.79404345 412.44083 -124.3125 412.4375 C-123.31033447 412.43823517 -122.30816895 412.43897034 -121.27563477 412.43972778 C-105.62790676 412.40955904 -91.08844233 411.47406087 -76 407 C-74.64310059 406.61448975 -74.64310059 406.61448975 -73.25878906 406.22119141 C-47.5552151 398.78932737 -19.23889408 385.2199746 -1.6875 364.3125 C0.20838702 362.07493663 2.11092808 359.88296579 4.12890625 357.75390625 C31.22198126 329.05880593 38.66901489 290.89684712 39.5625 252.8125 C39.60579049 251.08006986 39.64940774 249.34764786 39.69335938 247.61523438 C39.79933871 243.41024049 39.90090133 239.20516143 40 235 C39.19823837 235.00460896 38.39647675 235.00921793 37.57041931 235.01396656 C18.04824846 235.12446058 -1.47385986 235.20716378 -20.99627686 235.25906086 C-30.43724813 235.28482598 -39.87801049 235.3199441 -49.31884766 235.37719727 C-57.54893924 235.42708411 -65.77887949 235.45930332 -74.00911808 235.47044247 C-78.36573588 235.47695232 -82.7219208 235.49221672 -87.07839966 235.52865028 C-91.18246431 235.56269346 -95.28591948 235.57303636 -99.39011192 235.56553841 C-100.89291386 235.56690926 -102.39573706 235.57679261 -103.89841652 235.59602737 C-118.89917004 235.77855582 -118.89917004 235.77855582 -125 230 C-129.10888716 224.83755203 -130.45908639 220.75703038 -130.3359375 214.15625 C-129.70778698 210.12440014 -127.88002944 206.8560292 -125 204 C-117.18769312 198.62089456 -108.67188553 199.44302884 -99.57177734 199.49829102 C-97.79709953 199.49450454 -96.02242468 199.4890018 -94.24775696 199.48191833 C-89.44413558 199.46799132 -84.64087348 199.47911323 -79.83727217 199.49562955 C-74.80456753 199.50950811 -69.77188314 199.50301694 -64.73916626 199.49949646 C-56.29089587 199.49679706 -47.84276778 199.51024847 -39.39453125 199.53344727 C-29.63098852 199.5600725 -19.86768341 199.56179761 -10.1041168 199.5500589 C-0.70361315 199.53927682 8.69680465 199.54547047 18.09730148 199.55961418 C22.09478157 199.5653685 26.09219872 199.56529569 30.08967972 199.56054878 C34.79623618 199.55577346 39.50253267 199.56590372 44.20903969 199.58750343 C45.93517874 199.59306326 47.66134281 199.59354398 49.3874836 199.58855057 C51.74555863 199.58258493 54.10284215 199.59512656 56.46084595 199.61231995 C57.77968088 199.61474984 59.09851582 199.61717974 60.45731544 199.61968327 C65.60866621 200.17269465 68.84883322 201.72438276 72.3125 205.5625 C74.94633222 209.36692432 75.13644586 211.41781291 75.17700195 216.04077148 C75.18983719 217.31488388 75.20267242 218.58899628 75.21589661 219.90171814 C75.22408331 221.30817264 75.23152327 222.71463166 75.23828125 224.12109375 C75.24235678 224.83577379 75.2464323 225.55045383 75.25063133 226.28679085 C75.27155846 230.09801062 75.28580947 233.9091941 75.29516602 237.72045898 C75.30388574 240.82060266 75.32440571 243.92027731 75.35668945 247.02026367 C75.63903599 274.7544122 73.71818896 300.7111201 64 327 C63.72816895 327.75958008 63.45633789 328.51916016 63.17626953 329.30175781 C46.73339337 374.79405082 7.76769636 410.74956074 -35.14770508 431.09057617 C-50.44757989 438.1109331 -66.42396404 443.08908637 -83 446 C-83.83144531 446.14953125 -84.66289062 446.2990625 -85.51953125 446.453125 C-113.1343587 451.19878424 -142.62529631 450.93421733 -170 445 C-170.97001953 444.79101074 -171.94003906 444.58202148 -172.93945312 444.36669922 C-213.26832852 435.36351383 -250.18291635 415.79476259 -280.2890625 387.5234375 C-282.54255176 385.42580917 -284.83340164 383.4194089 -287.1875 381.4375 C-329.39398074 344.60432892 -354.67934716 282.97815958 -359 228 C-359.31706242 221.4342564 -359.33023895 214.86531807 -359.31567383 208.29321289 C-359.31252265 205.33376863 -359.33603898 202.37533671 -359.36132812 199.41601562 C-359.40419313 186.37442108 -358.25473151 173.84091588 -356 161 C-355.85495026 160.17360016 -355.70990051 159.34720032 -355.56045532 158.49575806 C-349.82765397 126.37064765 -336.23036301 93.43668852 -317 67 C-316.35675781 66.08605469 -315.71351563 65.17210937 -315.05078125 64.23046875 C-301.27473971 44.87905479 -284.92526393 26.45975222 -266 12 C-265.35530762 11.49533203 -264.71061523 10.99066406 -264.04638672 10.47070312 C-230.40277528 -15.79445288 -191.17668454 -32.03132455 -149 -38 C-148.35901367 -38.09643799 -147.71802734 -38.19287598 -147.05761719 -38.29223633 C-95.3327675 -45.15129342 -42.06978479 -30.3137806 0 0 Z " fill="#FCFDFD" transform="translate(589,406)"/>
<path d="M0 0 C1.77467781 -0.00378647 3.54935267 -0.00928922 5.32402039 -0.01637268 C10.12764176 -0.03029969 14.93090386 -0.01917778 19.73450518 -0.00266147 C24.76720982 0.01121709 29.7998942 0.00472592 34.83261108 0.00120544 C43.28088147 -0.00149396 51.72900956 0.01195745 60.17724609 0.03515625 C69.94078882 0.06178148 79.70409394 0.0635066 89.46766055 0.05176789 C98.86816419 0.0409858 108.26858199 0.04717946 117.66907883 0.06132317 C121.66655891 0.06707748 125.66397606 0.06700468 129.66145706 0.06225777 C134.36801353 0.05748244 139.07431001 0.0676127 143.78081703 0.08921242 C145.50695608 0.09477224 147.23312016 0.09525296 148.95926094 0.09025955 C151.31733597 0.08429392 153.6746195 0.09683555 156.03262329 0.11402893 C157.35145823 0.11645883 158.67029316 0.11888872 160.02909279 0.12139225 C165.18044355 0.67440364 168.42061057 2.22609174 171.88427734 6.06420898 C174.51810957 9.86863331 174.70822321 11.9195219 174.7487793 16.54248047 C174.76161453 17.81659286 174.77444977 19.09070526 174.78767395 20.40342712 C174.79586066 21.80988163 174.80330062 23.21634064 174.81005859 24.62280273 C174.81413412 25.33748278 174.81820965 26.05216282 174.82240868 26.78849983 C174.84333581 30.5997196 174.85758682 34.41090308 174.86694336 38.22216797 C174.87566309 41.32231165 174.89618305 44.42198629 174.9284668 47.52197266 C175.21081333 75.25612119 173.28996631 101.21282908 163.57177734 127.50170898 C163.29994629 128.26128906 163.02811523 129.02086914 162.74804688 129.8034668 C146.30517072 175.2957598 107.33947371 211.25126973 64.42407227 231.59228516 C49.12419745 238.61264209 33.1478133 243.59079535 16.57177734 246.50170898 C15.32460938 246.72600586 15.32460938 246.72600586 14.05224609 246.95483398 C-13.56258135 251.70049322 -43.05351897 251.43592631 -70.42822266 245.50170898 C-71.39824219 245.29271973 -72.36826172 245.08373047 -73.36767578 244.8684082 C-113.69655118 235.86522281 -150.61113901 216.29647157 -180.71728516 188.02514648 C-182.97077442 185.92751815 -185.2616243 183.92111788 -187.61572266 181.93920898 C-194.5629537 175.90190633 -201.73239889 168.47540188 -206.42822266 160.50170898 C-206.42822266 159.51170898 -206.42822266 158.52170898 -206.42822266 157.50170898 C-203.22073287 158.95025276 -200.40086957 160.8339158 -197.50756836 162.82641602 C-171.68178664 180.57685007 -141.83147039 190.33328469 -111.6171875 197.83984375 C-102.36134527 200.16819336 -93.31932339 202.99574752 -84.2956543 206.10131836 C-83.31975342 206.42938477 -82.34385254 206.75745117 -81.33837891 207.09545898 C-80.0565271 207.53921875 -80.0565271 207.53921875 -78.7487793 207.99194336 C-76.17702923 208.55688961 -74.92463734 208.18521075 -72.42822266 207.50170898 C-70.23339844 207.73950195 -70.23339844 207.73950195 -67.87353516 208.24389648 C-67.01115234 208.42307617 -66.14876953 208.60225586 -65.26025391 208.78686523 C-63.92027344 209.07883789 -63.92027344 209.07883789 -62.55322266 209.37670898 C-60.78515723 209.74988145 -59.01693165 210.12229603 -57.24853516 210.49389648 C-56.07701904 210.74695557 -56.07701904 210.74695557 -54.88183594 211.00512695 C-48.81107271 212.23377694 -43.05746292 212.69906179 -36.87744141 212.77514648 C-35.95437698 212.78771988 -35.03131256 212.80029327 -34.08027649 212.81324768 C-14.34245937 213.02993763 4.48909997 213.16014994 23.57177734 207.50170898 C24.47637695 207.24470215 25.38097656 206.98769531 26.31298828 206.72290039 C52.01656224 199.29103635 80.33288326 185.72168359 97.88427734 164.81420898 C99.78016437 162.57664562 101.68270542 160.38467478 103.70068359 158.25561523 C130.79375861 129.56051492 138.24079223 91.39855611 139.13427734 53.31420898 C139.17756783 51.58177885 139.22118508 49.84935685 139.26513672 48.11694336 C139.37111605 43.91194948 139.47267867 39.70687042 139.57177734 35.50170898 C138.3691349 35.50862243 138.3691349 35.50862243 137.14219666 35.51567554 C117.6200258 35.62616957 98.09791748 35.70887277 78.57550049 35.76076984 C69.13452921 35.78653496 59.69376686 35.82165308 50.25292969 35.87890625 C42.0228381 35.9287931 33.79289785 35.9610123 25.56265926 35.97215146 C21.20604146 35.97866131 16.84985654 35.99392571 12.49337769 36.03035927 C8.38931304 36.06440244 4.28585786 36.07474534 0.18166542 36.06724739 C-1.32113652 36.06861824 -2.82395971 36.07850159 -4.32663918 36.09773636 C-19.3273927 36.2802648 -19.3273927 36.2802648 -25.42822266 30.50170898 C-29.53710982 25.33926101 -30.88730904 21.25873937 -30.76416016 14.65795898 C-30.13600964 10.62610913 -28.3082521 7.35773818 -25.42822266 4.50170898 C-17.61591578 -0.87739646 -9.10010818 -0.05526218 0 0 Z " fill="#F8F8FA" transform="translate(489.42822265625,605.498291015625)"/>
<path d="M0 0 C-0.52741975 4.72889912 -2.68972304 8.09309404 -5.3125 11.9375 C-5.75762939 12.59427734 -6.20275879 13.25105469 -6.66137695 13.92773438 C-34.86696702 54.70878506 -79.65588654 83.66568112 -128.28125 93.15625 C-129.85325512 93.4425511 -131.42621879 93.72362867 -133 94 C-133.83144531 94.14953125 -134.66289062 94.2990625 -135.51953125 94.453125 C-163.1343587 99.19878424 -192.62529631 98.93421733 -220 93 C-220.97001953 92.79101074 -221.94003906 92.58202148 -222.93945312 92.36669922 C-263.26832852 83.36351383 -300.18291635 63.79476259 -330.2890625 35.5234375 C-332.54255176 33.42580917 -334.83340164 31.4194089 -337.1875 29.4375 C-344.13473104 23.40019735 -351.30417624 15.9736929 -356 8 C-356 7.01 -356 6.02 -356 5 C-352.79251021 6.44854378 -349.97264691 8.33220682 -347.0793457 10.32470703 C-321.25356398 28.07514108 -291.40324773 37.8315757 -261.18896484 45.33813477 C-251.93312261 47.66648438 -242.89110073 50.49403853 -233.86743164 53.59960938 C-232.89153076 53.92767578 -231.91562988 54.25574219 -230.91015625 54.59375 C-230.05558838 54.88958984 -229.20102051 55.18542969 -228.32055664 55.49023438 C-225.74880658 56.05518063 -224.49641468 55.68350176 -222 55 C-219.80517578 55.23779297 -219.80517578 55.23779297 -217.4453125 55.7421875 C-216.58292969 55.92136719 -215.72054687 56.10054687 -214.83203125 56.28515625 C-213.93871094 56.47980469 -213.04539062 56.67445313 -212.125 56.875 C-210.35693457 57.24817247 -208.58870899 57.62058705 -206.8203125 57.9921875 C-206.03930176 58.16089355 -205.25829102 58.32959961 -204.45361328 58.50341797 C-198.38285005 59.73206796 -192.62924026 60.1973528 -186.44921875 60.2734375 C-185.52615433 60.28601089 -184.6030899 60.29858429 -183.65205383 60.3115387 C-163.91423671 60.52822865 -145.08267737 60.65844096 -126 55 C-125.09540039 54.74299316 -124.19080078 54.48598633 -123.25878906 54.22119141 C-106.56882693 49.39549948 -90.34522571 42.70468862 -76.25 32.43359375 C-74 31 -74 31 -71 31 C-71.66 31.99 -72.32 32.98 -73 34 C-48.773134 25.77719598 -24.16886504 16.91848805 -3.62890625 1.18359375 C-2 0 -2 0 0 0 Z " fill="#E9E9EB" transform="translate(639,758)"/>
<path d="M0 0 C5.27322153 1.82534591 7.79691086 4.60719203 11 9 C12.27102613 12.8130784 12.18192734 16.41974472 12.203125 20.39453125 C12.20882507 21.21950607 12.21452515 22.0444809 12.22039795 22.89445496 C12.22984123 24.64031698 12.23637926 26.38619677 12.24023438 28.13208008 C12.24992586 30.79214918 12.28094912 33.45144078 12.3125 36.11132812 C12.31903189 37.80989126 12.32428163 39.5084599 12.328125 41.20703125 C12.3404718 41.99785599 12.3528186 42.78868073 12.36553955 43.60346985 C12.34336145 49.15078593 11.37517146 53.39597087 7.5 57.64453125 C2.80115864 61.30326449 -0.72025136 62.46582719 -6.578125 62.41796875 C-10.88934075 61.67393635 -14.02421941 59.11136772 -17 56 C-18.66874456 53.16183249 -19.25575632 51.06564965 -19.29052734 47.78564453 C-19.30328705 46.96444122 -19.31604675 46.14323792 -19.32919312 45.29714966 C-19.33141876 44.4179184 -19.33364441 43.53868713 -19.3359375 42.6328125 C-19.3425943 41.72046844 -19.3492511 40.80812439 -19.35610962 39.86813354 C-19.3662245 37.93994154 -19.370927 36.0117146 -19.37060547 34.08349609 C-19.37497428 31.14231292 -19.41129367 28.20263611 -19.44921875 25.26171875 C-19.45508813 23.38542178 -19.45905671 21.50911771 -19.4609375 19.6328125 C-19.47530853 18.7576297 -19.48967957 17.8824469 -19.50448608 16.98074341 C-19.46362765 11.48598572 -18.66020121 8.35698455 -15 4 C-10.20662513 -0.2360057 -6.14861504 -0.89575147 0 0 Z " fill="#F7F9FB" transform="translate(652,838)"/>
<path d="M0 0 C2.5 0.125 2.5 0.125 3.5 1.125 C3.63350672 3.47768513 3.73129068 5.83242963 3.8125 8.1875 C4.22279517 16.02192003 5.78937383 20.90155266 10.8125 26.875 C17.44460503 32.42746002 21.64833623 33.81887542 30.34765625 33.5 C37.99561357 32.59020582 42.15700831 28.9518019 47.0546875 23.22265625 C50.32045721 18.48287697 50.83958211 14.01862847 51.0625 8.375 C51.37795567 1.24704433 51.37795567 1.24704433 52.5 0.125 C55 0 55 0 57.5 0.125 C59.80026238 2.42526238 58.93176646 8.0833816 58.953125 11.26513672 C58.7533396 20.47255406 55.41010885 27.70855367 48.75 34.125 C43.37511678 38.35255238 37.3643388 41.125 30.5 41.125 C30.5 45.085 30.5 49.045 30.5 53.125 C31.99853516 53.10759766 31.99853516 53.10759766 33.52734375 53.08984375 C34.81769531 53.08082031 36.10804688 53.07179688 37.4375 53.0625 C38.72527344 53.05089844 40.01304687 53.03929687 41.33984375 53.02734375 C44.5 53.125 44.5 53.125 45.5 54.125 C45.625 56.625 45.625 56.625 45.5 59.125 C43.73927416 60.88572584 41.4210371 60.25334784 39.0760498 60.26394653 C37.9401239 60.26091019 37.9401239 60.26091019 36.78125 60.2578125 C35.62163757 60.25924759 35.62163757 60.25924759 34.43859863 60.26071167 C32.80102456 60.26139341 31.16344781 60.25953957 29.52587891 60.25537109 C27.01068079 60.25002271 24.49566127 60.25531626 21.98046875 60.26171875 C20.39322877 60.26105797 18.8059889 60.2597768 17.21875 60.2578125 C16.46146606 60.25983673 15.70418213 60.26186096 14.9239502 60.26394653 C9.61495132 60.23995132 9.61495132 60.23995132 8.5 59.125 C8.375 56.625 8.375 56.625 8.5 54.125 C9.5 53.125 9.5 53.125 12.66015625 53.02734375 C13.94792969 53.03894531 15.23570312 53.05054688 16.5625 53.0625 C17.85285156 53.07152344 19.14320313 53.08054687 20.47265625 53.08984375 C21.47167969 53.10144531 22.47070312 53.11304688 23.5 53.125 C23.5 49.165 23.5 45.205 23.5 41.125 C22.55125 41.08375 21.6025 41.0425 20.625 41 C13.14406289 39.90744935 6.26079296 34.93713676 1.75 29.00390625 C1.3375 28.38386719 0.925 27.76382813 0.5 27.125 C0.0875 26.51527344 -0.325 25.90554688 -0.75 25.27734375 C-4.83007617 17.92470648 -4.05471766 9.27298399 -3.5 1.125 C-2.5 0.125 -2.5 0.125 0 0 Z " fill="#F4F8FB" transform="translate(620.5,873.875)"/>
<path d="M0 0 C219.45 0 438.9 0 665 0 C661.96314218 2.02457188 661.40223398 2.24986968 658.00193787 2.24723816 C657.1908255 2.25143265 656.37971313 2.25562714 655.54402161 2.25994873 C654.21403389 2.25151947 654.21403389 2.25151947 652.85717773 2.24291992 C651.92004944 2.24481827 650.98292114 2.24671661 650.01739502 2.24867249 C646.90604381 2.25238833 643.79492441 2.24165275 640.68359375 2.23046875 C638.51139859 2.22927579 636.33920292 2.22882403 634.16700745 2.2290802 C629.59966833 2.2275132 625.03240733 2.21921599 620.46508789 2.20581055 C614.65901002 2.18897169 608.85301924 2.18499195 603.04691982 2.18575573 C598.5502695 2.18548112 594.0536376 2.17995142 589.55699348 2.17275429 C587.41994427 2.16960599 585.282893 2.16760936 583.1458416 2.16686058 C570.39511279 2.1575162 557.7226211 1.86847166 545 1 C544.67 1.66 544.34 2.32 544 3 C544 2.34 544 1.68 544 1 C543.34 1 542.68 1 542 1 C541.67 1.66 541.34 2.32 541 3 C541 2.34 541 1.68 541 1 C539.63875 1.2784375 539.63875 1.2784375 538.25 1.5625 C535.31685676 1.95734621 533.7355343 1.94691572 531 1 C530.67 1.66 530.34 2.32 530 3 C526.66666667 2.33333333 523.33333333 1.66666667 520 1 C519.67 1.99 519.34 2.98 519 4 C518.01 4 517.02 4 516 4 C516 3.01 516 2.02 516 1 C514.54119891 1.14107747 513.08296449 1.28802415 511.625 1.4375 C510.81289063 1.51871094 510.00078125 1.59992188 509.1640625 1.68359375 C506.95727195 1.89090114 506.95727195 1.89090114 505 3 C505 2.34 505 1.68 505 1 C500.54114074 1.10944715 496.08315844 1.24017666 491.625 1.375 C490.35398437 1.4059375 489.08296875 1.436875 487.7734375 1.46875 C486.56171875 1.50742188 485.35 1.54609375 484.1015625 1.5859375 C482.42054443 1.63306885 482.42054443 1.63306885 480.70556641 1.68115234 C477.85289588 1.73411203 477.85289588 1.73411203 476 4 C475.67 3.34 475.34 2.68 475 2 C474.33760315 2.00222061 473.6752063 2.00444122 472.99273682 2.00672913 C466.04871158 2.02898991 459.10469662 2.04399268 452.16064453 2.05493164 C449.57502836 2.05993564 446.98941498 2.06674089 444.40380859 2.07543945 C440.67024035 2.0876783 436.93670977 2.0932678 433.203125 2.09765625 C432.06200256 2.10281754 430.92088013 2.10797882 429.74517822 2.11329651 C422.44763533 2.11379748 415.26152532 1.7235784 408 1 C407.67 1.66 407.34 2.32 407 3 C405.68 3 404.36 3 403 3 C403 2.34 403 1.68 403 1 C401.515 1.495 401.515 1.495 400 2 C398.15302673 2.09061045 396.30280404 2.11898359 394.45361328 2.11523438 C393.25155243 2.11463013 392.04949158 2.11402588 390.81100464 2.11340332 C389.43910621 2.10707531 388.06720885 2.10051365 386.6953125 2.09375 C385.21526137 2.08991259 383.73520964 2.0863004 382.25515747 2.08288574 C358.20479886 2.01114269 334.15470238 1.76630696 310.1052382 1.55461884 C303.09619648 1.49297713 296.08714029 1.4330599 289.0780828 1.37324238 C274.71870585 1.25065853 260.35934695 1.12604898 246 1 C245.67 1.66 245.34 2.32 245 3 C244.38125 2.835 243.7625 2.67 243.125 2.5 C238.42589775 1.74814364 232.36060244 0.81969878 228 3 C228 2.34 228 1.68 228 1 C226.4840625 1.5259375 226.4840625 1.5259375 224.9375 2.0625 C222.2203986 3.00516783 220.71872884 2.95857561 217.80413818 2.52932739 C214.11612776 2.01615861 210.63936013 1.87306965 206.91894531 1.87060547 C206.24974564 1.86885315 205.58054596 1.86710083 204.8910675 1.86529541 C202.70339278 1.86093315 200.51580039 1.86379352 198.328125 1.8671875 C196.79831934 1.86651316 195.26851379 1.86554205 193.7387085 1.86428833 C190.54470797 1.86281926 187.35073553 1.8649416 184.15673828 1.86962891 C180.06218881 1.87534513 175.96770462 1.87203027 171.8731575 1.86605644 C168.71964016 1.86244595 165.56613835 1.86359134 162.41262054 1.86618423 C160.90233096 1.86685115 159.39203996 1.8660333 157.88175201 1.86370468 C155.77562201 1.86116805 153.66959862 1.86503215 151.56347656 1.87060547 C150.36547424 1.87140106 149.16747192 1.87219666 147.9331665 1.87301636 C144.93765568 1.86805946 144.93765568 1.86805946 142 3 C140.08078003 2.88357544 140.08078003 2.88357544 137.92138672 2.57080078 C133.01411819 1.95394149 128.1989777 1.85529391 123.2578125 1.8671875 C122.36762421 1.86623077 121.47743591 1.86527405 120.56027222 1.86428833 C118.69643075 1.8636129 116.83258684 1.86542233 114.96875 1.86962891 C112.11192615 1.87502469 109.25525678 1.86964279 106.3984375 1.86328125 C104.58072882 1.8639414 102.76302024 1.86522125 100.9453125 1.8671875 C100.0922049 1.86516327 99.23909729 1.86313904 98.36013794 1.86105347 C94.99214886 1.87446526 92.2172525 1.9275825 89 3 C87.32806521 2.69418478 85.66161274 2.35767584 84 2 C82.24681126 1.92160517 80.49099483 1.89212427 78.73608398 1.90234375 C77.18920143 1.90723816 77.18920143 1.90723816 75.61106873 1.91223145 C73.94540611 1.92473938 73.94540611 1.92473938 72.24609375 1.9375 C69.85156281 1.94605104 67.45703155 1.9545112 65.0625 1.96289062 C63.8146875 1.96909424 62.566875 1.97529785 61.28125 1.98168945 C40.83334892 2.07909752 20.42317088 2.11485369 0 1 C0 0.67 0 0.34 0 0 Z " fill="#1F1155" transform="translate(307,88)"/>
<path d="M0 0 C0.33 0 0.66 0 1 0 C1.5743936 49.62871554 2.10497151 99.25691571 2.12338257 148.88943481 C2.12499619 151.7432693 2.12854883 154.59709571 2.13256836 157.45092773 C2.13839329 161.92621686 2.13867326 166.40147184 2.13431931 170.87676239 C2.13333325 172.50138074 2.13388505 174.12600093 2.13615799 175.75061798 C2.14557983 183.89386208 2.00473288 191.90825857 1 200 C1.66 200.33 2.32 200.66 3 201 C2.67 201.33 2.34 201.66 2 202 C1.92794489 203.68608966 1.91613932 205.37500659 1.9375 207.0625 C1.94652344 207.98160156 1.95554687 208.90070313 1.96484375 209.84765625 C1.97644531 210.55792969 1.98804687 211.26820313 2 212 C2.99 212.33 3.98 212.66 5 213 C4.2575 213.5878125 4.2575 213.5878125 3.5 214.1875 C1.78728362 215.91667184 1.78728362 215.91667184 1.75 218.375 C1.95335359 221.02540262 1.95335359 221.02540262 2.5625 223.6875 C3 226 3 226 2 228 C1.90391392 229.83128771 1.87017421 231.66619959 1.875 233.5 C1.87242188 234.4796875 1.86984375 235.459375 1.8671875 236.46875 C1.83059947 238.99431054 1.83059947 238.99431054 3 241 C2.68512077 243.33589525 2.34876236 245.66892292 2 248 C1.91748876 250.30332749 1.88211383 252.60868189 1.88647461 254.91348267 C1.88632575 255.57411221 1.88617689 256.23474175 1.88602352 256.91539037 C1.88671375 259.11371154 1.8945395 261.31194738 1.90234375 263.51025391 C1.90426586 265.09748792 1.90572827 266.68472256 1.9067688 268.2719574 C1.90993083 271.69843285 1.91620558 275.12488364 1.92483521 278.55134964 C1.93854992 284.06966194 1.94429875 289.58796639 1.94897461 295.10629272 C1.96189932 308.88693473 1.98577737 322.66755577 2.01037598 336.44818115 C2.03412694 349.85347112 2.05248377 363.25875487 2.0625 376.6640625 C2.0632893 377.61203736 2.0640786 378.56001223 2.06489182 379.5367136 C2.09793285 422.36253836 1.62396877 465.1792337 1 508 C0.67 508 0.34 508 0 508 C0 340.36 0 172.72 0 0 Z " fill="#4E4978" transform="translate(87,300)"/>
<path d="M0 0 C0.33 0 0.66 0 1 0 C1.01712095 45.79713353 1.03304124 91.59426735 1.04234314 137.3914032 C1.0424812 138.06937807 1.04261925 138.74735293 1.04276149 139.44587249 C1.04575451 154.18062684 1.04852467 168.91538122 1.05106533 183.65013565 C1.05231265 190.87621349 1.05360921 198.10229132 1.05493164 205.32836914 C1.0550624 206.04744497 1.05519316 206.7665208 1.05532788 207.5073868 C1.05958808 230.80837267 1.06709853 254.10935611 1.07629722 277.4103405 C1.08573407 301.35813867 1.09188643 325.3059355 1.09391499 349.2537355 C1.09420314 352.63736468 1.09452878 356.02099386 1.09487724 359.40462303 C1.09494467 360.07055991 1.09501209 360.73649679 1.09508156 361.42261357 C1.09633543 372.79671842 1.10165614 384.17081826 1.10791647 395.54492136 C1.11319962 405.65838976 1.11480071 415.77185454 1.11350138 425.88532422 C1.11286046 431.72148466 1.11384775 437.55763292 1.11920547 443.3937912 C1.12407666 448.73901145 1.12431419 454.08421134 1.12089889 459.42943253 C1.12047686 461.36097523 1.12174116 463.2925192 1.12488318 465.22405938 C1.15329576 483.77225057 1.15329576 483.77225057 0 493 C-0.33 493 -0.66 493 -1 493 C-0.99777939 491.69200943 -0.99555878 490.38401886 -0.99327087 489.03639221 C-0.97297364 476.6923507 -0.95799615 464.34831259 -0.94818783 452.00425816 C-0.94297572 445.65851202 -0.93590847 439.31277938 -0.92456055 432.96704102 C-0.91367221 426.8397553 -0.90771056 420.71248256 -0.90512276 414.58518791 C-0.90327922 412.25090264 -0.89967929 409.91661806 -0.89426994 407.58233833 C-0.88698059 404.3056092 -0.88601239 401.02893324 -0.88647461 397.75219727 C-0.88287933 396.79337646 -0.87928406 395.83455566 -0.87557983 394.84667969 C-0.52991935 384.43037709 -0.52991935 384.43037709 -4 375 C-3.67 374.01 -3.34 373.02 -3 372 C-2.34 372.33 -1.68 372.66 -1 373 C-0.67 370.03 -0.34 367.06 0 364 C-0.66 363.67 -1.32 363.34 -2 363 C-1.34 363 -0.68 363 0 363 C-0.16282722 361.9295749 -0.32565445 360.8591498 -0.49341583 359.75628757 C-1.18982352 354.14082083 -1.12799118 348.55020527 -1.10534668 342.8993988 C-1.10454259 341.70460423 -1.1037385 340.50980966 -1.10291004 339.27880919 C-1.09960959 336.00076956 -1.09176664 332.72277923 -1.08182585 329.4447542 C-1.07220757 325.92669094 -1.06832882 322.40862033 -1.063591 318.89054775 C-1.05123642 310.66818512 -1.02934588 302.44585989 -1.00613165 294.22352189 C-0.99624331 290.63771092 -0.98749987 287.05189723 -0.97866821 283.46608353 C-0.9332761 265.29816382 -0.87240582 247.13031149 -0.80645761 228.96245608 C-0.77757945 220.9960797 -0.75002182 213.02969886 -0.72249681 205.06331771 C-0.67343401 190.87269377 -0.62342114 176.68207337 -0.57275391 162.49145508 C-0.52372598 148.75936054 -0.47518095 135.02726442 -0.42724609 121.29516602 C-0.4242591 120.43951489 -0.4212721 119.58386376 -0.41819459 118.70228381 C-0.40320297 114.406985 -0.38822042 110.11168615 -0.37324238 105.8163873 C-0.25023407 70.54425319 -0.12566025 35.27212476 0 0 Z " fill="#578FBE" transform="translate(1192,492)"/>
<path d="M0 0 C2.67792265 3.94186863 2.26749771 8.21617416 2.22946167 12.78596497 C2.23013301 14.13125535 2.23013301 14.13125535 2.23081791 15.50372332 C2.22976583 18.51535625 2.21424255 21.52673943 2.19873047 24.53833008 C2.19485304 26.69502128 2.19180614 28.85171411 2.18952942 31.00840759 C2.18043708 36.87214709 2.15821114 42.73576706 2.13258505 48.59945512 C2.11205621 53.49259728 2.09706867 58.38575077 2.08182538 63.27891177 C2.04543987 74.82311859 1.99758165 86.36724138 1.94335938 97.91137695 C1.88767315 109.82305342 1.85422298 121.73465126 1.83125198 133.64643174 C1.81058264 143.86996495 1.77462304 154.09336999 1.7267276 164.31681174 C1.69836284 170.42424522 1.67615893 176.53154891 1.66924667 182.63904762 C1.66219975 188.38391247 1.63612124 194.12838025 1.59541893 199.87310219 C1.58370701 201.98097566 1.57876715 204.08889934 1.58111382 206.19680405 C1.58325751 209.07601296 1.56090166 211.95403828 1.53244019 214.83308411 C1.53883636 215.66597436 1.54523254 216.49886462 1.55182254 217.35699397 C1.44551994 223.87730894 -0.28187852 228.28187852 -5 233 C-5.99 232.67 -6.98 232.34 -8 232 C-7.57847656 231.52949219 -7.15695312 231.05898438 -6.72265625 230.57421875 C-5.90087891 229.64029297 -5.90087891 229.64029297 -5.0625 228.6875 C-4.51722656 228.07261719 -3.97195313 227.45773437 -3.41015625 226.82421875 C-0.25699029 222.74519242 -0.84738794 218.11225586 -0.84178162 213.21125793 C-0.83684364 212.30214604 -0.83190566 211.39303414 -0.82681805 210.45637339 C-0.8114104 207.39775667 -0.80307358 204.339161 -0.79467773 201.28051758 C-0.78510178 199.09290887 -0.77509187 196.90530203 -0.76467896 194.71769714 C-0.73759321 188.76766321 -0.71660352 182.81762131 -0.69667697 176.86755967 C-0.67484003 170.65352816 -0.64744014 164.43952129 -0.62062073 158.22550964 C-0.5763438 147.79203363 -0.53551379 137.35854878 -0.49731445 126.92504883 C-0.45795761 116.17796848 -0.41653093 105.4308994 -0.37231445 94.68383789 C-0.36959018 94.02151304 -0.36686591 93.3591882 -0.36405908 92.6767929 C-0.35037957 89.35414084 -0.33665708 86.03148896 -0.32291877 82.70883715 C-0.20905114 55.13924782 -0.10222252 27.56963479 0 0 Z " fill="#3072B2" transform="translate(997,738)"/>
<path d="M0 0 C65.67 0 131.34 0 199 0 C195.96314218 2.02457188 195.40223398 2.24986968 192.00193787 2.24723816 C191.1908255 2.25143265 190.37971313 2.25562714 189.54402161 2.25994873 C188.21403389 2.25151947 188.21403389 2.25151947 186.85717773 2.24291992 C185.45148529 2.24576744 185.45148529 2.24576744 184.01739502 2.24867249 C180.90604381 2.25238833 177.79492441 2.24165275 174.68359375 2.23046875 C172.51139859 2.22927579 170.33920292 2.22882403 168.16700745 2.2290802 C163.59966833 2.2275132 159.03240733 2.21921599 154.46508789 2.20581055 C148.65901002 2.18897169 142.85301924 2.18499195 137.04691982 2.18575573 C132.5502695 2.18548112 128.0536376 2.17995142 123.55699348 2.17275429 C121.41994427 2.16960599 119.282893 2.16760936 117.1458416 2.16686058 C104.39511279 2.1575162 91.7226211 1.86847166 79 1 C78.67 1.66 78.34 2.32 78 3 C78 2.34 78 1.68 78 1 C77.34 1 76.68 1 76 1 C75.67 1.66 75.34 2.32 75 3 C75 2.34 75 1.68 75 1 C73.63875 1.2784375 73.63875 1.2784375 72.25 1.5625 C69.31685676 1.95734621 67.7355343 1.94691572 65 1 C64.67 1.66 64.34 2.32 64 3 C60.66666667 2.33333333 57.33333333 1.66666667 54 1 C53.67 1.99 53.34 2.98 53 4 C52.01 4 51.02 4 50 4 C50 3.01 50 2.02 50 1 C48.54119891 1.14107747 47.08296449 1.28802415 45.625 1.4375 C44.81289063 1.51871094 44.00078125 1.59992188 43.1640625 1.68359375 C40.95727195 1.89090114 40.95727195 1.89090114 39 3 C39 2.34 39 1.68 39 1 C34.54114074 1.10944715 30.08315844 1.24017666 25.625 1.375 C24.35398437 1.4059375 23.08296875 1.436875 21.7734375 1.46875 C20.56171875 1.50742188 19.35 1.54609375 18.1015625 1.5859375 C16.42054443 1.63306885 16.42054443 1.63306885 14.70556641 1.68115234 C11.85289588 1.73411203 11.85289588 1.73411203 10 4 C9.67 3.34 9.34 2.68 9 2 C6.87423218 1.53348793 6.87423218 1.53348793 4.4375 1.375 C3.61121094 1.30023438 2.78492188 1.22546875 1.93359375 1.1484375 C1.29550781 1.09945312 0.65742187 1.05046875 0 1 C0 0.67 0 0.34 0 0 Z " fill="#232565" transform="translate(773,88)"/>
<path d="M0 0 C0.33 0 0.66 0 1 0 C1.02339813 20.01950981 1.04101309 40.03901682 1.05181217 60.05853748 C1.05696046 69.35470348 1.06397512 78.65086096 1.07543945 87.94702148 C1.0854312 96.05298722 1.0918641 104.15894678 1.09408849 112.26491851 C1.09538799 116.55382055 1.09842543 120.84270496 1.10573006 125.13160133 C1.11256122 129.17560466 1.11460263 133.21958322 1.11310768 137.26359177 C1.11338084 138.74091286 1.11534359 140.21823485 1.11920547 141.69555092 C1.13947958 149.85748007 0.93561241 157.88751317 0 166 C-0.33 166 -0.66 166 -1 166 C-0.99777939 164.69200943 -0.99555878 163.38401886 -0.99327087 162.03639221 C-0.97297364 149.6923507 -0.95799615 137.34831259 -0.94818783 125.00425816 C-0.94297572 118.65851202 -0.93590847 112.31277938 -0.92456055 105.96704102 C-0.91367221 99.8397553 -0.90771056 93.71248256 -0.90512276 87.58518791 C-0.90327922 85.25090264 -0.89967929 82.91661806 -0.89426994 80.58233833 C-0.88698059 77.3056092 -0.88601239 74.02893324 -0.88647461 70.75219727 C-0.88287933 69.79337646 -0.87928406 68.83455566 -0.87557983 67.84667969 C-0.52991935 57.43037709 -0.52991935 57.43037709 -4 48 C-3.67 47.01 -3.34 46.02 -3 45 C-2.34 45.33 -1.68 45.66 -1 46 C-0.67 43.03 -0.34 40.06 0 37 C-0.66 36.67 -1.32 36.34 -2 36 C-1.34 36 -0.68 36 0 36 C-0.17402344 34.9790625 -0.34804687 33.958125 -0.52734375 32.90625 C-1.33440397 26.44976826 -0.84901268 19.98111434 -0.5625 13.5 C-0.51029297 12.200625 -0.45808594 10.90125 -0.40429688 9.5625 C-0.27537896 6.37471154 -0.14044748 3.18729782 0 0 Z " fill="#5AA2CF" transform="translate(1192,819)"/>
<path d="M0 0 C0.99 1.32 1.98 2.64 3 4 C3.66 4.33 4.32 4.66 5 5 C4.505 5.391875 4.01 5.78375 3.5 6.1875 C1.78728362 7.91667184 1.78728362 7.91667184 1.75 10.375 C1.95335359 13.02540262 1.95335359 13.02540262 2.5625 15.6875 C3 18 3 18 2 20 C1.90391392 21.83128771 1.87017421 23.66619959 1.875 25.5 C1.87242188 26.4796875 1.86984375 27.459375 1.8671875 28.46875 C1.83059947 30.99431054 1.83059947 30.99431054 3 33 C2.76413674 34.63590297 2.52404973 36.27131308 2.26220703 37.90325928 C1.76457087 41.88261103 1.90025842 45.87893791 1.9375 49.8828125 C1.94607111 51.85872349 1.95453001 53.83463498 1.96289062 55.81054688 C1.96909424 56.84171631 1.97529785 57.87288574 1.98168945 58.93530273 C2.1082168 80.97636669 1.76743027 102.97311838 1 125 C0.67 125 0.34 125 0 125 C0 83.75 0 42.5 0 0 Z " fill="#433E6E" transform="translate(87,508)"/>
<path d="M0 0 C1.76949095 -0.10815225 3.54087487 -0.18566083 5.3125 -0.25 C6.29863281 -0.29640625 7.28476562 -0.3428125 8.30078125 -0.390625 C11 0 11 0 12.85546875 2.015625 C13.23316406 2.67046875 13.61085938 3.3253125 14 4 C12.02 4.99 12.02 4.99 10 6 C10 6.66 10 7.32 10 8 C10.99 8.33 11.98 8.66 13 9 C4.81818182 14 4.81818182 14 1 14 C-1.6875 12.625 -1.6875 12.625 -4 11 C-4 10.34 -4 9.68 -4 9 C-2 7.375 -2 7.375 0 6 C2 7 2 7 3 8 C3.5534764 5.92446352 4 4.15634036 4 2 C2.68 1.34 1.36 0.68 0 0 Z M-6 10 C-5.34 10.33 -4.68 10.66 -4 11 C-4.33 11.66 -4.66 12.32 -5 13 C-5.66 12.34 -6.32 11.68 -7 11 C-6.67 10.67 -6.34 10.34 -6 10 Z M-3 13 C-1.02 13.99 -1.02 13.99 1 15 C0.01 15.33 -0.98 15.66 -2 16 C-2.33 15.01 -2.66 14.02 -3 13 Z " fill="#4783B9" transform="translate(824,861)"/>
<path d="M0 0 C0.66 0.33 1.32 0.66 2 1 C1.20335937 1.78503906 0.40671875 2.57007813 -0.4140625 3.37890625 C-7.06551859 9.87814136 -7.06551859 9.87814136 -13.25 16.8125 C-15.91787801 20.05657652 -18.99736329 22.66394599 -22.1875 25.3828125 C-24.43737323 27.39024249 -26.19266131 29.59021508 -28 32 C-29.01090363 33.23734605 -30.03244977 34.4660468 -31.0625 35.6875 C-31.54847656 36.26886719 -32.03445312 36.85023438 -32.53515625 37.44921875 C-34 39 -34 39 -37 41 C-30.09558634 25.88586064 -12.87733637 10.16631819 0 0 Z " fill="#2F1E5F" transform="translate(170,140)"/>
<path d="M0 0 C3.73226151 1.32307683 6.48870109 2.95173219 9.5625 5.4375 C10.30628906 6.03433594 11.05007813 6.63117188 11.81640625 7.24609375 C12.53699219 7.82488281 13.25757813 8.40367187 14 9 C15.00353516 9.69802734 15.00353516 9.69802734 16.02734375 10.41015625 C18.43223787 12.34835804 20.09149616 14.57261058 22 17 C23.83395622 18.92445623 25.67632452 20.81659719 27.5625 22.6875 C28.04396484 23.17283203 28.52542969 23.65816406 29.02148438 24.15820312 C31.25724427 26.38781237 33.36192439 28.24128293 36 30 C38.42656249 33.89720642 40.42779663 37.67644074 42 42 C41.34 42 40.68 42 40 42 C39.525625 41.05125 39.05125 40.1025 38.5625 39.125 C35.47237729 33.76020362 31.25331111 29.45821515 27 25 C26.51321777 24.48598633 26.02643555 23.97197266 25.52490234 23.44238281 C19.11691868 16.71227794 12.56244118 10.55915433 5.04980469 5.0703125 C1.08620445 2.17240889 1.08620445 2.17240889 0 0 Z " fill="#303C74" transform="translate(587,404)"/>
<path d="M0 0 C7.1178153 2.03807293 14.06707281 4.40344742 21 7 C20.01 7.66 19.02 8.32 18 9 C16.68 8.34 15.36 7.68 14 7 C14 7.66 14 8.32 14 9 C13.01 9 12.02 9 11 9 C10.67 9.66 10.34 10.32 10 11 C9.566875 10.505 9.13375 10.01 8.6875 9.5 C7.00259517 7.66781808 7.00259517 7.66781808 4 8 C4 7.34 4 6.68 4 6 C2.68 5.34 1.36 4.68 0 4 C0 2.68 0 1.36 0 0 Z " fill="#4168A1" transform="translate(772,610)"/>
<path d="M0 0 C0.66 0.33 1.32 0.66 2 1 C1.19780029 1.79696289 0.39560059 2.59392578 -0.4309082 3.41503906 C-3.41344218 6.37943947 -6.39263809 9.34717552 -9.37084961 12.31591797 C-10.65900679 13.59905404 -11.94806107 14.88129015 -13.23803711 16.16259766 C-15.09466738 18.00706503 -16.94802143 19.8547708 -18.80078125 21.703125 C-19.66344353 22.55804535 -19.66344353 22.55804535 -20.54353333 23.43023682 C-23.26582135 26.1521443 -25.79949669 28.82262195 -28 32 C-28.66 31.67 -29.32 31.34 -30 31 C-29.35933594 30.29875 -28.71867187 29.5975 -28.05859375 28.875 C-27.19363281 27.92625 -26.32867187 26.9775 -25.4375 26 C-24.74587769 25.2428772 -24.74587769 25.2428772 -24.0402832 24.47045898 C-21.52959738 21.71365325 -19.08078511 18.9211461 -16.6875 16.0625 C-11.6363728 10.21832143 -5.72606039 5.16637028 0 0 Z " fill="#343370" transform="translate(341,448)"/>
<path d="M0 0 C0.99 1.32 1.98 2.64 3 4 C3.66 4.33 4.32 4.66 5 5 C4.505 5.391875 4.01 5.78375 3.5 6.1875 C1.78728362 7.91667184 1.78728362 7.91667184 1.75 10.375 C1.95335359 13.02540262 1.95335359 13.02540262 2.5625 15.6875 C3 18 3 18 2 20 C1.90391392 21.83128771 1.87017421 23.66619959 1.875 25.5 C1.87242188 26.4796875 1.86984375 27.459375 1.8671875 28.46875 C1.83059947 30.99431054 1.83059947 30.99431054 3 33 C2.71758117 35.3400417 2.38749213 37.67504723 2 40 C1.34 40 0.68 40 0 40 C0 26.8 0 13.6 0 0 Z " fill="#3C336E" transform="translate(87,508)"/>
<path d="M0 0 C3.96 0 7.92 0 12 0 C12 0.66 12 1.32 12 2 C12.5775 2.2475 13.155 2.495 13.75 2.75 C16.82309721 4.45727623 19.4344028 6.35396712 20.609375 9.7734375 C21.08215631 12.46829095 21.09505758 15.01516297 21.0625 17.75 C21.05347656 18.73484375 21.04445313 19.7196875 21.03515625 20.734375 C21.02355469 21.48203125 21.01195312 22.2296875 21 23 C20.67 23 20.34 23 20 23 C19.89042969 22.19175781 19.78085937 21.38351562 19.66796875 20.55078125 C19.50941406 19.48214844 19.35085938 18.41351562 19.1875 17.3125 C19.03667969 16.25675781 18.88585937 15.20101562 18.73046875 14.11328125 C17.57347146 9.18212167 15.94908152 6.66993989 11.8125 3.75 C7.93207313 1.69370542 4.34963297 1.3052374 0 1 C0 0.67 0 0.34 0 0 Z " fill="#4C6D9F" transform="translate(690,714)"/>
<path d="M0 0 C0.33 0 0.66 0 1 0 C1.11686443 4.02058602 1.18747388 8.04073082 1.25 12.0625 C1.30027344 13.7630957 1.30027344 13.7630957 1.3515625 15.49804688 C1.43053489 22.2699293 1.10225906 26.52272448 -3 32 C-3.66 32.66 -4.32 33.32 -5 34 C-5.99 33.67 -6.98 33.34 -8 33 C-7.57847656 32.52949219 -7.15695312 32.05898438 -6.72265625 31.57421875 C-6.17480469 30.95160156 -5.62695312 30.32898438 -5.0625 29.6875 C-4.51722656 29.07261719 -3.97195313 28.45773437 -3.41015625 27.82421875 C-0.92819984 24.61348844 -0.83516884 21.59507989 -0.68359375 17.67578125 C-0.64169922 16.64775391 -0.59980469 15.61972656 -0.55664062 14.56054688 C-0.51732422 13.48869141 -0.47800781 12.41683594 -0.4375 11.3125 C-0.37272461 9.68731445 -0.37272461 9.68731445 -0.30664062 8.02929688 C-0.20053162 5.35299209 -0.09847639 2.67659474 0 0 Z " fill="#2E7DBD" transform="translate(997,937)"/>
<path d="M0 0 C10.395 3.465 10.395 3.465 21 7 C21 7.99 21 8.98 21 10 C13.74 7.69 6.48 5.38 -1 3 C-0.67 2.01 -0.34 1.02 0 0 Z " fill="#F3F6F9" transform="translate(392,805)"/>
<path d="M0 0 C0.33 0.66 0.66 1.32 1 2 C2.8233538 2.42877597 2.8233538 2.42877597 5 2.6875 C10.84112843 3.82197278 14.62842126 7.13482163 19 11 C16 12 16 12 14.09887695 11.19555664 C13.40238037 10.77137451 12.70588379 10.34719238 11.98828125 9.91015625 C11.23095703 9.45576172 10.47363281 9.00136719 9.69335938 8.53320312 C8.90767578 8.04787109 8.12199219 7.56253906 7.3125 7.0625 C6.51521484 6.58103516 5.71792969 6.09957031 4.89648438 5.60351562 C2.92527257 4.41134561 0.96031588 3.2099739 -1 2 C-0.67 1.34 -0.34 0.68 0 0 Z " fill="#333E78" transform="translate(561,387)"/>
<path d="M0 0 C0.66 0.33 1.32 0.66 2 1 C1.835 1.763125 1.67 2.52625 1.5 3.3125 C0.90854604 6.03596236 0.90854604 6.03596236 1 9 C0.34 9 -0.32 9 -1 9 C-1.99 12.3 -2.98 15.6 -4 19 C-4.33 19 -4.66 19 -5 19 C-4.5464821 11.97047248 -2.87940913 6.4150557 0 0 Z " fill="#333370" transform="translate(275,546)"/>
<path d="M0 0 C0.66 0.33 1.32 0.66 2 1 C-2.62 5.62 -7.24 10.24 -12 15 C-12.66 14.67 -13.32 14.34 -14 14 C-12.42100123 12.22513306 -10.83707231 10.45512408 -9.25 8.6875 C-8.8065625 8.18798828 -8.363125 7.68847656 -7.90625 7.17382812 C-5.453615 4.45068191 -3.02719984 2.07235877 0 0 Z " fill="#374A82" transform="translate(746,425)"/>
<path d="M0 0 C2.64 0.99 5.28 1.98 8 3 C7.67 3.66 7.34 4.32 7 5 C4.9375 5.625 4.9375 5.625 3 6 C2.67 7.32 2.34 8.64 2 10 C-1.07692308 5.69230769 -1.07692308 5.69230769 -0.6875 2.1875 C-0.460625 1.465625 -0.23375 0.74375 0 0 Z " fill="#3B609B" transform="translate(762,605)"/>
<path d="M0 0 C0.66 0.66 1.32 1.32 2 2 C-0.97 4.97 -3.94 7.94 -7 11 C-7.99 10.67 -8.98 10.34 -10 10 C-6.7 6.7 -3.4 3.4 0 0 Z " fill="#345692" transform="translate(615,792)"/>
<path d="M0 0 C5.445 1.485 5.445 1.485 11 3 C10.01 3.66 9.02 4.32 8 5 C6.68 4.34 5.36 3.68 4 3 C4 3.66 4 4.32 4 5 C2.35 4.67 0.7 4.34 -1 4 C-0.67 2.68 -0.34 1.36 0 0 Z " fill="#4E70A2" transform="translate(782,614)"/>
<path d="M0 0 C0.33 0 0.66 0 1 0 C1 5.94 1 11.88 1 18 C0.67 18 0.34 18 0 18 C-0.07347656 17.07767578 -0.07347656 17.07767578 -0.1484375 16.13671875 C-0.22320313 15.32847656 -0.29796875 14.52023437 -0.375 13.6875 C-0.44460938 12.88699219 -0.51421875 12.08648438 -0.5859375 11.26171875 C-0.89564426 8.72775559 -0.89564426 8.72775559 -3 6 C-2.67 5.01 -2.34 4.02 -2 3 C-1.34 3.33 -0.68 3.66 0 4 C0 2.68 0 1.36 0 0 Z " fill="#288BCA" transform="translate(1191,861)"/>
<path d="M0 0 C0.33 1.32 0.66 2.64 1 4 C-2 6 -2 6 -4.5 5.8125 C-7.13662075 4.95559826 -8.25689748 4.11007147 -10 2 C-8.3603125 2.061875 -8.3603125 2.061875 -6.6875 2.125 C-2.91107771 2.32074666 -2.91107771 2.32074666 0 0 Z " fill="#3A5D95" transform="translate(785,570)"/>
<path d="M0 0 C3.96 0.33 7.92 0.66 12 1 C11.67 1.99 11.34 2.98 11 4 C10.01 3.67 9.02 3.34 8 3 C7.01 3.495 7.01 3.495 6 4 C4.33380554 4.0396713 2.66608987 4.04384447 1 4 C0.67 2.68 0.34 1.36 0 0 Z " fill="#6492BD" transform="translate(799,858)"/>
<path d="M0 0 C-1.22025063 3.6607519 -2.126491 3.92339441 -5.4375 5.6875 C-6.64212891 6.34298828 -6.64212891 6.34298828 -7.87109375 7.01171875 C-10 8 -10 8 -12 8 C-12 7.34 -12 6.68 -12 6 C-9.8828125 4.4921875 -9.8828125 4.4921875 -7.125 2.875 C-6.22007812 2.33617187 -5.31515625 1.79734375 -4.3828125 1.2421875 C-2 0 -2 0 0 0 Z " fill="#F0F5F8" transform="translate(563,792)"/>
<path d="M0 0 C1.3125 2.5625 1.3125 2.5625 2 5 C0.35153231 4.55123384 -1.29373455 4.09069512 -2.9375 3.625 C-3.85402344 3.36976563 -4.77054688 3.11453125 -5.71484375 2.8515625 C-8 2 -8 2 -9 0 C-5.69183862 -1.10272046 -3.29888363 -1.21537818 0 0 Z " fill="#466699" transform="translate(793,576)"/>
<path d="M0 0 C0.66 0.33 1.32 0.66 2 1 C1.48168678 4.83551785 0.74372987 6.36601932 -2 9 C-3.19027984 11.59915538 -3.19027984 11.59915538 -4 14 C-5.2277183 10.31684509 -4.6026666 9.37044582 -3.125 5.875 C-2.75632812 4.98554687 -2.38765625 4.09609375 -2.0078125 3.1796875 C-1 1 -1 1 0 0 Z " fill="#32316E" transform="translate(282,528)"/>
<path d="M0 0 C0.33 0.66 0.66 1.32 1 2 C-3.62 4.64 -8.24 7.28 -13 10 C-13 9.01 -13 8.02 -13 7 C-8.71 4.69 -4.42 2.38 0 0 Z " fill="#363471" transform="translate(385,420)"/>
<path d="M0 0 C0.33 0 0.66 0 1 0 C1.39169887 2.66355234 1.40564529 4.39224373 -0.11328125 6.66796875 C-1.36389317 8.1510888 -2.67864514 9.57954352 -4 11 C-4.99 10.67 -5.98 10.34 -7 10 C-6.57847656 9.52949219 -6.15695312 9.05898438 -5.72265625 8.57421875 C-5.17480469 7.95160156 -4.62695312 7.32898438 -4.0625 6.6875 C-3.51722656 6.07261719 -2.97195313 5.45773437 -2.41015625 4.82421875 C-0.79918441 2.94758042 -0.79918441 2.94758042 0 0 Z " fill="#3E8AC4" transform="translate(996,960)"/>
<path d="M0 0 C1.51150967 2.81166418 2.51430351 5.45680982 3.25 8.5625 C3.44078125 9.32691406 3.6315625 10.09132813 3.828125 10.87890625 C4 13 4 13 2 16 C1.66104344 14.27192682 1.32908475 12.54248026 1 10.8125 C0.814375 9.84957031 0.62875 8.88664063 0.4375 7.89453125 C0.03122388 5.2065794 -0.07933572 2.71228981 0 0 Z " fill="#618EBE" transform="translate(994,721)"/>
<path d="M0 0 C2.31 0.33 4.62 0.66 7 1 C6.01 2.485 6.01 2.485 5 4 C2 4 2 4 -1 3 C-0.67 2.01 -0.34 1.02 0 0 Z " fill="#3D649F" transform="translate(690,709)"/>
<path d="M0 0 C0.66 0.99 1.32 1.98 2 3 C-0.57784846 5.64752004 -2.91648098 7.94432065 -6 10 C-4.6302836 6.00499382 -2.74277578 3.19990508 0 0 Z " fill="#2C1D5C" transform="translate(132,181)"/>
<path d="M0 0 C-7.28571429 4.42857143 -7.28571429 4.42857143 -12 5 C-8.77464852 1.23708994 -4.90542108 -1.63514036 0 0 Z " fill="#3C2F68" transform="translate(218,112)"/>
<path d="M0 0 C0 0.33 0 0.66 0 1 C-4.3164922 1.76173392 -7.74433453 2.16063604 -12 1 C-12 0.67 -12 0.34 -12 0 C-7.66726186 -0.92844389 -4.33273814 -0.92844389 0 0 Z " fill="#D2DBE5" transform="translate(505,817)"/>
<path d="M0 0 C0.66 0 1.32 0 2 0 C2 4 2 4 0 6.25 C-0.99 7.11625 -0.99 7.11625 -2 8 C-2.66 7.67 -3.32 7.34 -4 7 C-2.68 4.69 -1.36 2.38 0 0 Z " fill="#3C639A" transform="translate(646,748)"/>
</svg>
